<?xml version="1.0" standalone="no"?>
<!DOCTYPE svg PUBLIC "-//W3C//DTD SVG 1.1//EN" "http://www.w3.org/Graphics/SVG/1.1/DTD/svg11.dtd" >
<!--
2013-9-30: Created.
-->
<svg>
<metadata>
Created by iconfont
</metadata>
<defs>

<font id="iconfont" horiz-adv-x="1024" >
  <font-face
    font-family="iconfont"
    font-weight="500"
    font-stretch="normal"
    units-per-em="1024"
    ascent="896"
    descent="-128"
  />
    <missing-glyph />
    
    <glyph glyph-name="x" unicode="x" horiz-adv-x="1001"
d="M281 543q-27 -1 -53 -1h-83q-18 0 -36.5 -6t-32.5 -18.5t-23 -32t-9 -45.5v-76h912v41q0 16 -0.5 30t-0.5 18q0 13 -5 29t-17 29.5t-31.5 22.5t-49.5 9h-133v-97h-438v97zM955 310v-52q0 -23 0.5 -52t0.5 -58t-10.5 -47.5t-26 -30t-33 -16t-31.5 -4.5q-14 -1 -29.5 -0.5
t-29.5 0.5h-32l-45 128h-439l-44 -128h-29h-34q-20 0 -45 1q-25 0 -41 9.5t-25.5 23t-13.5 29.5t-4 30v167h911zM163 247q-12 0 -21 -8.5t-9 -21.5t9 -21.5t21 -8.5q13 0 22 8.5t9 21.5t-9 21.5t-22 8.5zM316 123q-8 -26 -14 -48q-5 -19 -10.5 -37t-7.5 -25t-3 -15t1 -14.5
t9.5 -10.5t21.5 -4h37h67h81h80h64h36q23 0 34 12t2 38q-5 13 -9.5 30.5t-9.5 34.5q-5 19 -11 39h-368zM336 498v228q0 11 2.5 23t10 21.5t20.5 15.5t34 6h188q31 0 51.5 -14.5t20.5 -52.5v-227h-327z" />
    

    
    <glyph glyph-name="msnui-tel" unicode="&#59027;" d="M669.13145373 755.65782871L354.8550545 755.65782871c-47.34808924 0-85.71174554-38.38990897-85.71174554-85.70823377l0-571.3890672c0-47.3183248 38.36449924-85.70907668 85.71174554-85.70907669l314.27724298 0c47.34808924 0 85.71174554 38.39075272 85.71174554 85.70907669L754.84404303 669.94959494C754.84404303 717.26707598 716.48038672 755.65782871 669.13145373 755.65782871zM483.42225095 727.08841746l57.14200718 0c7.89584546 0 14.2848696-6.38960504 14.28486959-14.28428377 0-7.89552163-6.38902414-14.2851275-14.2848696-14.2851275l-57.14200717 0c-7.89500254 0-14.2848696 6.38960504-14.2848696 14.2851275C469.13738135 720.69881159 475.52724841 727.08841746 483.42225095 727.08841746zM511.993676 47.75481775000003c-20.17302512 0-36.52207883 16.34838464-36.52207883 36.52058249 0 20.17135492 16.34989747 36.52058249 36.52207883 36.52058249 20.17218137 0 36.52207883-16.35007049 36.52207882-36.52058249C548.51659857 64.10235947000001 532.16585736 47.75481775000003 511.993676 47.75481775000003zM697.70203586 169.98363400000005c0-7.89552163-6.38902414-14.28428376-14.2848696-14.28428375L340.56934198 155.69935024999995c-7.89584546 0-14.28571253 6.38876212-14.28571252 14.28428375L326.28362945 655.6644674300001c0 7.89552163 6.38986706 14.28428376 14.28571253 14.28428376l342.84782428 0c7.89584546 0 14.2848696-6.38960504 14.2848696-14.28428376L697.70203586 169.98363400000005z"  horiz-adv-x="1024" />

    
    <glyph glyph-name="mima" unicode="&#58912;" d="M509.50129364 355.48581713c-35.20085037 0-63.83913926-28.63828811-63.83913925-63.8399295 0-13.9970238 4.44961043-27.28419683 12.8697995-38.42363652 0.18022951-0.2387245 0.36757276-0.47112551 0.56203128-0.69799325 15.77244138-18.38023373 16.91784591-31.50140548 16.99136092-32.70372529l0-36.45929443c0-18.42608096 14.99065685-33.41594756 33.4167378-33.41594756 18.42687198 0 33.4167378 14.99065685 33.41673781 33.41594756l0 37.14701145c0 0.41737353-0.01739076 0.83553728-0.05375276 1.25053853-0.00316175 0.03241001 0.08379049 0.00790475 0.08695302 0.03952376 0.09169601 0.83711778 0.37231576 2.62755461 1.2252438 5.22190895 1.71455031 5.21479445 5.74915872 13.75987979 15.2404486 24.85663321 0.13754325 0.16046725 0.27113451 0.32409702 0.40156404 0.49088778 8.84783884 11.31413596 13.52510728 24.89615773 13.52510727 39.27735402C573.34359465 326.84673799999996 544.70451552 355.48581713 509.50129364 355.48581713zM537.23843499 270.38514578c-22.32472738-26.22021128-23.41637993-44.99884653-23.20453066-50.25316471l0-36.77153395c0-2.49870636-2.03311409-4.53102942-4.53181966-4.53102943s-4.53102942 2.03232307-4.53102942 4.53102943l0 36.63319968c0.00158125 2.69711686-0.74226079 24.0961922-23.63218044 50.9630155-4.44407641 6.01871198-6.79101127 13.16306777-6.79101126 20.68922457 0 19.274266 15.68074537 34.95501137 34.95422112 34.95501135 19.27584726 0 34.95817312-15.68074537 34.95817311-34.95501135C544.45867652 283.87072932 541.96313192 276.52638253 537.23843499 270.38514578zM751.9935829 477.92400492l-35.39451789 0L716.59906501 570.65833858c0 0.61262151-0.0387335 1.22524381-0.11620051 1.83391256-6.30723724 49.26901769-30.34493368 94.63464595-67.68640365 127.74151651-37.66872798 33.39697632-86.16623737 51.78906679-136.55694534 51.78906678-55.00315716 0-106.71475694-21.41962783-145.60714745-60.31201835-38.89397177-38.89318154-60.31280937-90.60478054-60.31280937-145.60872872l0-68.15515766-39.3066023-0.02292401c-27.17273932 0-49.27850292-22.10655461-49.27850292-49.27850291l0-349.20388444c0-27.1719483 22.10576437-49.27771268 49.27850292-49.27771268l301.08027206 0c0.43871627 0 0.87268953 0.01897124 1.30112955 0.05770474l181.29809535 0c0.42923026-0.0387335 0.86320352-0.05770475 1.30112954-0.05770474 27.1719483 0 49.27771268 22.10576437 49.27771268 49.27771268L801.27129557 428.64550201C801.27129557 455.81745031 779.16553198 477.92400492 751.9935829 477.92400492zM772.38637822 79.44161756000005c0-10.72680917-8.32612232-19.54619076-18.855312-20.33508979-0.03952374 0-0.07983851 0-0.11936225 0L563.68946602 59.10652775999995c-0.43871627 0-0.87268953-0.01897124-1.30112955-0.05770474L267.01216615 59.048823029999994c-11.24536394 0-20.39279454 9.14822162-20.39279455 20.39279452L246.6193716 428.64550201c0 11.24536394 9.14822162 20.39358556 20.39279455 20.39358556l53.75736084 0.031619c0.73593653 0.00079025 1.45369206 0.07351424 2.16038108 0.1802295 0.77546027-0.12884826 1.56673082-0.21263875 2.37934411-0.21263875l272.62853695 0c0.26006801-0.00553325 0.66242228-0.01106649 1.19520529-0.0110665 7.26925129 0 38.86946651 1.10588078 66.40898835 19.269523 6.6590005 4.39190492 8.49607558 13.34962076 4.10417067 20.00862128-4.39269593 6.6590005-13.35120203 8.49528533-20.00862127 4.10417067-22.8282629-15.05705658-50.81203347-14.50055932-51.04601575-14.49344483-0.15809575 0.00553325-0.31698252 0.00790475-0.47665954 0.00790475L335.20447682 477.92400492l0 68.17887268c0 47.28807509 18.41501447 91.74544283 51.85230477 125.18352417 33.4372903 33.4372903 77.89465806 51.85151452 125.18273315 51.85151453 43.32302971 0 85.01371834-15.80959362 117.39413762-44.51744399 31.88557875-28.26834386 52.48706005-66.91094261 58.08128476-108.90043277l0-105.26896962c0-1.29243456 0.17390525-2.5793351 0.51539303-3.82513141l0.26639152-0.96912777c1.72245506-6.27087524 7.42418529-10.61693293 13.9266713-10.61693294l49.57098094 0c11.24457369 0 20.39279454-9.14822162 20.39279454-20.39358555L772.38716845 79.44161756000005z"  horiz-adv-x="1024" />

    
    <glyph glyph-name="mail" unicode="&#58896;" d="M772.71071625 644.71071625L251.28928375 644.71071625C203.36196374 644.71071625 164.38571167 605.73446417 164.38571167 557.80714417l0-347.61428834c0-47.92732 38.97625208-86.90357209 86.90357209-86.90357208l521.42143249 1e-8c47.92732 0 86.90357209 38.97625208 86.90357208 86.90357207L859.61428833 557.80714417C859.61428833 605.73446417 820.63803626 644.71071625 772.71071625 644.71071625zM772.71071625 601.2589302c4.25827503 0 8.0820322-1.26010179 11.94924116-2.43330001L527.59919119 344.4588747C519.1695447 336.02922820000003 504.78700351 336.02922820000003 496.27045345 344.41542291999997L237.73232651 598.52146769C242.07750511 599.95537663 246.50958729 601.2589302 251.28928375 601.2589302L772.71071625 601.2589302zM816.16250229 210.19285582999998c0-23.98538589-19.46640015-43.45178603-43.45178604-43.45178603L251.28928375 166.7410698c-23.94193411 0-43.45178603 19.46640015-43.45178604 43.45178603L207.83749771 557.80714417c0 2.73746253 1.04284287 5.08385897 1.5642643 7.64751435l256.40898944-252.02035905c12.73137332-12.51411438 29.41685916-18.81462337 46.14579676-18.81462336 16.77238941 0 33.50132704 6.34396076 46.23270034 18.94497873l256.14827872 253.45426797C814.98930406 563.9772977800001 816.16250229 561.06602813 816.16250229 557.80714417L816.16250229 210.19285582999998z"  horiz-adv-x="1024" />

    
    <glyph glyph-name="iconfontguanbi" unicode="&#58887;" d="M555.008 384l299.008 299.008c12.288 12.288 12.288 31.744 0 43.008-12.288 12.288-31.744 12.288-43.008 0L512 427.008 212.992 726.016c-12.288 12.288-31.744 12.288-43.008 0-12.288-12.288-12.288-31.744 0-43.008L468.992 384 169.984 84.99199999999996c-12.288-12.288-12.288-31.744 0-43.008 6.144-6.144 14.336-9.216 21.504-9.216s15.36 3.072 21.504 9.216L512 340.99199999999996l299.008-299.008c6.144-6.144 14.336-9.216 21.504-9.216s15.36 3.072 21.504 9.216c12.288 12.288 12.288 31.744 0 43.008L555.008 384z"  horiz-adv-x="1024" />

    
    <glyph glyph-name="gou" unicode="&#58940;" d="M870.4 563.2L780.8 652.8 416 294.4 243.2 460.8 153.6 371.20000000000005 416 115.20000000000005 416 115.20000000000005 416 115.20000000000005Z"  horiz-adv-x="1024" />

    
    <glyph glyph-name="iconset0395" unicode="&#59154;" d="M863.01318359 678.9829104099999L863.01318359 678.9829104099999l-230.71289087 65.9179685 0 0C630.65234375 746.54882787 629.00439478 746.54882787 627.35644506 746.54882787s-3.29589869 0-4.94384766-1.64794896l0 0L396.64355494 680.63085938 170.87451172 746.54882787l0 0C169.22656275 746.54882787 167.57861303 746.54882787 165.93066406 746.54882787 156.04296875 746.54882787 149.45117213 739.95703125 149.45117213 730.06933594l0-626.22070338c0-8.23974635 4.94384766-13.183594 11.53564428-14.83154297l0 0 230.71289087-65.9179685 0 0c1.64794897 0 3.29589869-1.64794897 4.94384766-1.64794896s3.29589869 0 4.94384766 1.64794896l0 0L627.35644506 87.36914062000005 853.12548828 21.45117213000003l0 0c1.64794897 0 3.29589869-1.64794897 4.94384766-1.64794897 9.88769531 0 16.47949193 6.59179662 16.47949193 16.47949194L874.54882787 664.1513674400001C874.54882787 672.39111303 869.60498022 677.33496068 863.01318359 678.9829104099999zM380.16406225 59.35400364999998L182.410156 117.03222656000003 182.410156 708.64599635l197.75390625-56.03027319L380.16406225 59.35400364999998zM610.87695313 117.03222656000003l-197.75390626-56.03027318L413.12304687 650.96777344l197.75390626 56.03027318L610.87695313 117.03222656000003zM841.589844 59.35400364999998l-197.75390625 56.03027319L643.83593775 708.64599635l197.75390625-56.03027319L841.589844 59.35400364999998z"  horiz-adv-x="1024" />

    
    <glyph glyph-name="gouhao" unicode="&#58966;" d="M511.18169517 752.65274057c-203.68321518 0-368.78259073-165.09937473-368.78259074-368.78343366 0-203.66044958 165.09937473-368.78343366 368.78259074-368.78343364 203.66044958 0 368.78343366 165.12298406 368.78343364 368.78343364C879.96512881 587.55336584 714.84214475 752.65274057 511.18169517 752.65274057zM511.18169517 68.10745614999996c-174.39035669 0-315.76185078 141.39341675-315.76185078 315.76185076 0 174.39120044 141.37149408 315.76185078 315.76185078 315.76185078s315.76185078-141.37149408 315.76185076-315.76185078C826.94354675 209.50171582999997 685.57205268 68.10745614999996 511.18169517 68.10745614999996zM672.15539936 488.05157795c-9.5422489 0-18.20927939-3.87271775-24.47746684-10.14174894L464.71498107 294.53119144000004l-113.35436415 113.77005111c-6.26903119 6.26987411-14.91245151 10.14174893-24.47746683 10.14174894-19.08449781 0-34.57284082-15.4655766-34.57284082-34.57368375 0-9.5422489 3.84826548-18.16290444 10.09537399-24.4083263l137.83267475-138.29389288c6.24626477-6.24626477 14.91245151-10.14174893 24.47746682-10.14174893 9.56585825 0 18.20927939 3.87271775 24.47830976 10.14174894l0-0.02360935 207.43957452 207.92440201c6.22349917 6.24626477 10.095374 14.88968591 10.095374 24.43193481C706.72824018 472.58431467 691.23989715 488.05157795 672.15539936 488.05157795z"  horiz-adv-x="1024" />

    
    <glyph glyph-name="jiantouarrow484" unicode="&#59048;" d="M858.968 384c0-4.194-1.944-8.145-5.265-10.701l-330.93-254.43c-2.43-1.863-5.328-2.799-8.235-2.799-2.862 0-5.715 0.909-8.127 2.718-4.842 3.654-6.66 10.098-4.428 15.741l66.546 168.462L178.532 302.991c-7.461 0-13.5 6.048-13.5 13.5l0 135c0 7.461 6.039 13.5 13.5 13.5l389.997 0-66.546 168.471c-2.232 5.643-0.414 12.087 4.437 15.741 4.842 3.654 11.538 3.636 16.353-0.081l330.93-254.43C857.024 392.145 858.968 388.194 858.968 384z"  horiz-adv-x="1024" />

    
    <glyph glyph-name="jiantouarrow486" unicode="&#59050;" d="M148.42811733 566.39761067l729.62321067 0-364.81706667-364.79522134L148.42811733 566.39761067z"  horiz-adv-x="1024" />

    
    <glyph glyph-name="jiantouarrowheads3" unicode="&#59069;" d="M541.3203125 144.35812499999997c17.2209375-17.2209375 17.2209375-45.1575 0-62.3784375-17.2209375-17.229375-45.1490625-17.229375-62.3784375 0l-270.84375 270.8353125c-8.60625 8.6146875-12.909375 19.895625-12.909375 31.185s4.3115625 22.57875 12.909375 31.185l270.84375 270.8353125c17.229375 17.229375 45.1575 17.229375 62.3784375 0 17.2209375-17.2209375 17.2209375-45.1490625 0-62.3784375L301.6784375 384 541.3203125 144.35812499999997zM576.243125 384l239.641875 239.641875c17.2209375 17.229375 17.2209375 45.1575 0 62.3784375-17.2209375 17.229375-45.1490625 17.229375-62.3784375 0l-270.84375-270.8353125c-8.60625-8.6146875-12.909375-19.895625-12.909375-31.185s4.3115625-22.57875 12.909375-31.185l270.84375-270.8353125c17.229375-17.229375 45.1575-17.229375 62.3784375 0 17.2209375 17.2209375 17.2209375 45.1575 0 62.3784375L576.243125 384z"  horiz-adv-x="1024" />

    
    <glyph glyph-name="icon2" unicode="&#58925;" d="M730.29578035 473.45512686l0 69.23786826c0 111.15008873-95.0331963 201.30182593-212.31493747 201.30182594-117.27951788 0-212.31271418-90.15099635-212.31271419-201.30182595l0-68.08549719c-51.77592507-3.54678318-92.60914066-44.50005386-92.60914065-94.50332785l0-260.51295341c0-52.29912369 44.72385808-94.72268622 99.91020883-94.72268622l400.11438232 0c55.18635076 0 99.91020883 42.42356253 99.91020884 94.72268622L812.99378876 380.10417007C812.99378876 426.87043012 777.27695219 465.71904836 730.29578035 473.45512686zM562.27932463 230.69610033000004l0-87.72990485L487.34185083 142.96619477000002l0 86.32038104c-25.09427112 12.37817039-42.22421298 37.25456631-42.22421298 65.92822828 0 41.0214487 35.04764575 74.27272956 78.32863151 74.27272955 43.28172661 0 78.33085478-33.25053999 78.33085479-74.27272955C601.77712415 267.59272748 585.88033023 243.49149551000005 562.27932463 230.69610033000004zM662.97062638 474.86094567L372.2507271 474.86094567l0 55.49686083c0 76.10614868 65.06117107 137.85026906 145.37958805 137.85026909 80.2391218 0 145.33957039-61.74412109 145.33957038-137.85026909L662.96988481 474.86094567z"  horiz-adv-x="1024" />

    
    <glyph glyph-name="fengfuduoyangdechanpin" unicode="&#58963;" d="M696.91712132 385.54016233m-44.9277563 0a43.93989443 43.93989443 0 1 1 89.85551334 0 43.93989443 43.93989443 0 1 1-89.85551334 0ZM696.91712132 285.69338005c55.0560135 0 99.84678154 44.79076805 99.84678155 99.84678155s-44.79076805 99.84678154-99.84678155 99.84678154-99.84678154-44.79150889-99.84678154-99.84678154S641.86184795 285.69338005 696.91712132 285.69338005zM696.91712132 470.57738532c46.88928291 0 85.03722372-38.14794082 85.03722373-85.03722372 0-46.88928291-38.14794082-85.03722372-85.03722372-85.03722373S611.87989759 338.65087941 611.87989759 385.54016233C611.87989759 432.43018537 650.02783842 470.57738532 696.91712132 470.57738532zM280.92033414 462.36918797c-42.36348174 0-76.82902564-34.46554462-76.82902565-76.82902566s34.46554462-76.82902564 76.82902565-76.82902563c18.03582035 0 34.63733487 6.2503743 47.76008494 16.69407481l123.93823034-123.93749023c-10.89761308-13.26492142-17.44862159-30.22926996-17.44862158-48.69604871 0-42.36348174 34.46554462-76.82902564 76.82902564-76.82902566s76.82902564 34.46554462 76.82902563 76.82902566c0 19.08729924-6.99899716 36.56850172-18.56155943 50.01928306l57.23005627 57.23005627c20.58454569-11.43001695 44.25392194-17.95214668 69.42128478-17.95214669 79.1104385 0 143.47203798 64.36159948 143.47203797 143.47203798 0 79.1104385-64.36159948 143.47203798-143.47203797 143.47203797-24.88746235 0-48.31248097-6.37403376-68.73634269-17.56857893l-55.11673303 55.11673303c9.88241785 12.92874436 15.76329337 29.07190339 15.76329338 46.56495299 0 42.36348174-34.46554462 76.82828551-76.82902564 76.8282855s-76.82902564-34.46480377-76.82902564-76.8282855c0-18.0187894 6.23852646-34.60623498 16.66445518-47.72306041L330.56049239 444.12825491C317.16080383 455.49829318 299.82917834 462.36918797 280.92033414 462.36918797zM218.90086631 385.54016233c0 34.19749129 27.82197655 62.01946782 62.01946783 62.01946781s62.01946782-27.82197655 62.01946783-62.01946781c0-34.19823141-27.82197655-62.01946782-62.01946783-62.01946784S218.90086631 351.34193017999996 218.90086631 385.54016233zM511.9990542 90.75220399c-34.19749129 0-62.01946782 27.82123569-62.01946783 62.01946783s27.82197655 62.01946782 62.01946782 62.01946783c34.19823141 0 62.01946782-27.82123569 62.01946784-62.01946783S546.19654547 90.75220399 511.9990542 90.75220399zM825.57960075 385.54016233c0-70.94518815-57.71729127-128.66247945-128.66247942-128.66247945s-128.66247945 57.71729127-128.66247945 128.66247945c0 70.94444802 57.71729127 128.66247945 128.66247945 128.66247942S825.57960075 456.48460961 825.57960075 385.54016233zM553.44508334 385.54016233c0-48.51315075 24.20770406-91.47345726 61.17310164-117.45238431l-55.03824173-55.03824172c-13.09461141 10.35854514-29.62800223 16.55042175-47.58162917 16.55042176-18.57488827 0-35.63105622-6.62727727-48.92929936-17.63966462L339.33441537 335.69489134c11.47444567 13.42708565 18.41420428 30.84016439 18.41420429 49.84527026 0 18.1320827-6.31849802 34.81430965-16.86290311 47.96963986l121.2317837 121.2310436c13.43226945-11.49295758 30.85867632-18.44456405 49.8808131-18.44456406 19.54565475 0 37.40598202 7.34109814 50.97968268 19.40496439l52.27107628-52.27107628C577.92972592 477.4978919 553.44508334 434.32802974 553.44508334 385.54016233zM511.9990542 675.14403434c34.19823141 0 62.01946782-27.82123569 62.01946782-62.01872697s-27.82123569-62.01946782-62.01946783-62.01946782c-34.19749129 0-62.01946782 27.82197655-62.01946782 62.01946782S477.80156292 675.14403434 511.9990542 675.14403434zM638.15057297 732.5614315299999C445.64556908 802.23299787 233.10915642 702.6572316300001 163.43759008 510.15222703 126.87427216 409.12512407 136.92848099 302.58294082 182.56191314 214.06695190000005c-1.32915755-1.70309927-2.41988211-3.6379682-3.19516191-5.78017023-3.94896857-10.91020178 1.69495423-22.95555539 12.60515529-26.90378382 10.91020178-3.94896857 22.95555539 1.69495423 26.90378381 12.6051553 3.94822843 10.91020178-1.69495423 22.95555539-12.60515528 26.90378382-3.66462515 1.32619559-7.45735268 1.566111-11.02793728 0.89153506C150.23486917 309.61822167 143.56094207 411.71383447 177.3637586 505.11253463c16.35197382 45.18174069 41.05801919 85.80287751 73.43245384 120.73566352 31.27482493 33.74653995 68.35795873 60.80212187 110.21865552 80.41442008C402.87556474 725.87491644 447.39754003 737.05242997 493.34419365 739.48490007c47.56089616 2.51762473 94.58494553-4.49692237 139.76668619-20.8488962 45.18174069-16.35197382 85.80287751-41.05801919 120.73566353-73.43245384 33.74653995-31.27482493 60.80212187-68.35795873 80.4151602-110.21939638 19.6122982-41.86143763 30.7905526-86.38341221 33.22228184-132.32932641 2.51762473-47.56089616-4.49692237-94.58494553-20.8488962-139.76668619-16.35197382-45.18174069-41.05801919-85.80287751-73.43245385-120.73566352-31.27482493-33.74653995-68.35795873-60.80212187-110.21865552-80.4144201-41.86143763-19.6122982-86.38341221-30.7905526-132.32932641-33.22228182-47.56089616-2.51762473-94.58494553 4.49692237-139.76668618 20.8488962-43.47049638 15.73293435-82.78172769 39.24310761-116.84297083 69.87816003-1.12108361 1.00853116-2.22957922 2.03039044-3.33733399 3.05373069-0.7782425 0.83599933-1.75567303 1.50835343-2.90341359 1.92376191-3.85937097 1.39654113-8.12008076-0.59978745-9.51662189-4.4591577-1.12552656-3.10852628-0.04590971-6.47547917 2.4324701-8.39850025 1.13515257-1.04851695 2.27104598-2.09629303 3.42174848-3.13148115 34.48553753-31.01713846 75.40878953-56.03640602 121.70643003-72.79268059 192.50500387-69.67156633 405.0406757 29.90494075 474.71224203 222.4092045S830.65483599 662.89060533 638.15057297 732.5614315299999z"  horiz-adv-x="1024" />

    
    <glyph glyph-name="yonghu3" unicode="&#58962;" d="M732.02138186 537.99990458c0-119.7146197-97.05087637-216.78866963-216.78866965-216.78866962s-216.78866963 97.05087637-216.78866962 216.78866962c0 119.7146197 97.05087637 216.78866963 216.78866962 216.78866964s216.78866963-97.05087637 216.78866964-216.78866964zM694.15578205 311.01486709999995c-50.51836448-39.88169966-113.13332818-62.03562465-178.92306984-62.03562466-66.55446918 0-129.77194549 22.66374334-180.52204558 63.31017054-133.75779809-49.10477722-193.49924013-220.70500156-193.49924012-299.0779872l744.26528159 0c0 77.67777879-60.20491328 248.07297791-191.32092533 297.78026775z"  horiz-adv-x="1028" />

    
    <glyph glyph-name="qian" unicode="&#58978;" d="M662.18186401 569.40395233L512 419.22124539 361.81644931 569.40395233c-6.82890134 6.82890134-17.90067618 6.82805841-24.72957669-0.00084292-6.82805841-6.82805841-6.82805841-17.89983243 0-24.72873377l132.69687561-132.69603186-89.51181097 0c-9.65776437 0-17.48583216-7.82975363-17.48583216-17.48583215s7.82891071-17.48583216 17.48583216-17.48583216l114.53312741 0 0-73.44083221L389.89007175 303.56584726000006c-9.65776437 0-17.48583216-7.82975363-17.48583215-17.48583215s7.82891071-17.48583216 17.48583215-17.48583215l104.91583585 0 0-108.41249654c0-9.65607852 7.82975363-17.48583216 17.48583214-17.48583214s17.48583216 7.82975363 17.48583216 17.48583215L529.7775719 268.59418296l104.91499292 0c9.65692146 0 17.48583216 7.82975363 17.48583216 17.48583215S644.34948545 303.56584726000006 634.69256482 303.56584726000006L529.7775719 303.56584726000006l0 73.44083221 114.53228449 0c9.65692146 0 17.48583216 7.82975363 17.48583214 17.48583216s-7.82975363 17.48583216-17.48583215 17.48583215L554.21540884 411.97834296l132.69603187 132.69603186c6.82890134 6.82890134 6.82890134 17.90067618 0 24.72957669C680.08085352 576.23285366 669.01245203 576.23285366 662.18186401 569.40395233zM512 752.07769363c-202.95892502 0-368.07769363-165.11876861-368.07769363-368.07684988 0-202.95892502 165.11876861-368.07769363 368.07769363-368.07769363s368.07769363 165.11876861 368.07769363 368.07769363C880.07769363 586.9589250199999 714.95892502 752.07769363 512 752.07769363zM512 50.89481441999999c-183.67543652 0-333.10602933 149.43059197-333.10602933 333.10602933S328.32456348 717.10518558 512 717.10518558s333.10602933-149.42974905 333.10602933-333.10518558S695.6745936 50.89481441999999 512 50.89481441999999z"  horiz-adv-x="1024" />

    
    <glyph glyph-name="riliriqi" unicode="&#59399;" d="M487.28076172 306.4563802l49.43847656 1e-8C550.56201172 306.4563802 561.43847656 317.33284504999995 561.43847656 331.17561849000003S550.56201172 355.89485677000005 536.71923828 355.89485677000005l-49.43847656 0C473.43798828 355.89485677000005 462.56152344 345.01839192 462.56152344 331.17561849000003S473.43798828 306.4563802 487.28076172 306.4563802zM487.28076172 207.57942707999996l49.43847656 0C550.56201172 207.57942707999996 561.43847656 218.45589192 561.43847656 232.29866535999997 561.43847656 246.14143879999995 550.56201172 257.01790364 536.71923828 257.01790364l-49.43847656 0C473.43798828 257.01790364 462.56152344 246.14143879999995 462.56152344 232.29866535999997 462.56152344 218.45589192 473.43798828 207.57942707999996 487.28076172 207.57942707999996zM759.19238281 652.52571614l-98.87695312 0L660.31542969 677.24495442C660.31542969 691.08772786 649.43896484 701.96419271 635.59619141 701.96419271 621.75341797 701.96419271 610.87695313 691.08772786 610.87695313 677.24495442L610.87695313 652.52571614 413.12304687 652.52571614 413.12304687 677.24495442C413.12304687 691.08772786 402.24658203 701.96419271 388.40380859 701.96419271S363.68457031 691.08772786 363.68457031 677.24495442L363.68457031 652.52571614 264.80761719 652.52571614C210.42529297 652.52571614 165.93066406 608.03108724 165.93066406 553.6487630199999l0-395.5078125c0-54.38232422 44.49462891-98.87695313 98.87695313-98.87695313l494.38476562 0c54.38232422 0 98.87695313 44.49462891 98.87695313 98.87695313L858.06933594 553.6487630199999C858.06933594 608.03108724 813.57470703 652.52571614 759.19238281 652.52571614zM808.63085938 158.14095052000005c0-27.19116211-22.24731445-49.43847656-49.43847657-49.43847657L264.80761719 108.70247395000001c-27.19116211 0-49.43847656 22.24731445-49.43847657 49.43847657L215.36914062 454.77180989l593.26171875 0L808.63085938 158.14095052000005zM808.63085938 504.21028646L215.36914062 504.21028646 215.36914062 553.6487630199999c0 27.19116211 22.24731445 49.43847656 49.43847657 49.43847656l98.87695312 0 0-24.71923828C363.68457031 564.52522786 374.56103516 553.6487630199999 388.40380859 553.6487630199999S413.12304687 564.52522786 413.12304687 578.3680013000001L413.12304687 603.08723958l197.75390626 0-1e-8-24.71923828C610.87695313 564.52522786 621.75341797 553.6487630199999 635.59619141 553.6487630199999 649.43896484 553.6487630199999 660.31542969 564.52522786 660.31542969 578.3680013000001L660.31542969 603.08723958l98.87695312 0c27.19116211 0 49.43847656-22.24731445 49.43847657-49.43847656L808.63085938 504.21028646zM338.96533203 207.57942707999996l49.43847656 0C402.24658203 207.57942707999996 413.12304687 218.45589192 413.12304687 232.29866535999997 413.12304687 246.14143879999995 402.24658203 257.01790364 388.40380859 257.01790364l-49.43847656 0C325.12255859 257.01790364 314.24609375 246.14143879999995 314.24609375 232.29866535999997 314.24609375 218.45589192 325.12255859 207.57942707999996 338.96533203 207.57942707999996zM635.59619141 306.4563802l49.43847656 1e-8c13.84277344 0 24.71923828 10.87646484 24.71923828 24.71923828S698.87744141 355.89485677000005 685.03466797 355.89485677000005l-49.43847656 0C621.75341797 355.89485677000005 610.87695313 345.01839192 610.87695313 331.17561849000003S621.75341797 306.4563802 635.59619141 306.4563802zM338.96533203 306.4563802l49.43847656 1e-8C402.24658203 306.4563802 413.12304687 317.33284504999995 413.12304687 331.17561849000003S402.24658203 355.89485677000005 388.40380859 355.89485677000005l-49.43847656 0C325.12255859 355.89485677000005 314.24609375 345.01839192 314.24609375 331.17561849000003S325.12255859 306.4563802 338.96533203 306.4563802zM635.59619141 207.57942707999996l49.43847656 0c13.84277344 0 24.71923828 10.87646484 24.71923828 24.71923828 0 13.84277344-10.87646484 24.71923828-24.71923828 24.71923828l-49.43847656 0c-13.84277344 0-24.71923828-10.87646484-24.71923829-24.71923828C610.87695313 218.45589192 621.75341797 207.57942707999996 635.59619141 207.57942707999996z"  horiz-adv-x="1024" />

    
    <glyph glyph-name="qian1" unicode="&#58917;" d="M506.89724602 13.67080457999998c-201.36773722 0-364.60482092 163.27135484-364.60482091 364.60336238 0 201.36919577 163.23708369 364.60482092 364.60482091 364.60482093 201.33346608 0 364.60482092-163.23562589 364.60482093-364.60482093C871.50206694 176.94216014000006 708.2307121 13.67080457999998 506.89724602 13.67080457999998L506.89724602 13.67080457999998 506.89724602 13.67080457999998zM506.89724602 697.30347697c-176.19230395 0-319.02785147-142.83627678-319.02785146-319.02930928 0-176.19157468 142.83554752-318.99358033 319.02785146-318.99358033 176.19303322 0 318.99430959 142.80200563 318.9943096 318.99358033C825.89155562 554.46720091 683.09027924 697.30347697 506.89724602 697.30347697L506.89724602 697.30347697 506.89724602 697.30347697zM529.68536648 150.39661022999996l-45.57624091 0L484.10912558 264.37075364 347.38332065 264.37075364l0 45.54051123 136.72580492 0 1e-8 68.36290282L347.38332065 378.27416769l0 45.57697017 111.23536938 0-111.58610133 157.61807542 39.08003667 24.71897081 112.99121839-159.54965506 25.87762717 0L625.99820629 597.6561282600001l37.88638062-25.35116387L564.55151122 423.85113713l101.86038945 0 0-45.57697016-132.33764093 0-4.38962252-6.52974612 0-61.8331567 136.72653418 0 0-45.54051123L529.68536648 264.37075364 529.68536648 150.39661022999996 529.68536648 150.39661022999996 529.68536648 150.39661022999996z"  horiz-adv-x="1024" />

    
    <glyph glyph-name="yanzhengma2" unicode="&#58967;" d="M846.60857257 585.31135483c-29.74480197 2.05398248-59.63968927 7.64088217-85.27821295 15.85090915-8.30193393 2.49665131-16.61229959 5.26396262-24.97156897 8.25724566-17.62074069 5.18976288-41.59567283 15.48412673-68.80756695 30.15121344-0.29173974 0.13322186-0.58010696 0.30017148-0.86763044 0.45531601-6.39719385 3.45281534-12.94194424 7.13834747-19.60558264 11.05153803-8.97984915 5.14423087-17.87200763 10.63163562-26.74814639 16.35007049-0.34401682 0.23187387-0.68381736 0.43929629-1.01940244 0.66442429-6.37611411 4.11808254-12.72524717 8.37023154-19.02800527 12.78679888-4.10037616 2.8128425-8.20665444 5.81034183-12.31461942 8.78338889-3.08856253 2.26477661-6.17712424 4.3921159-9.26821637 6.72771973-22.59970862 16.88043-44.90599164 35.81905874-65.79404791 56.22228754-20.88805628-20.40322879-43.19771182-39.34185755-65.79742044-56.22228754-3.08518918-2.33476089-6.17881091-4.46294312-9.2665297-6.72771973-4.11302417-2.97304705-8.21508618-5.97054556-12.31461941-8.78338889-6.30528772-4.41656817-12.65357703-8.66871634-19.02969196-12.78679888-0.33389841-0.22512881-0.6796019-0.43255042-1.01518698-0.66442429-8.88288382-5.71927863-17.76829724-11.20583962-26.74983225-16.35007049-6.666168-3.91234763-13.2083888-7.59872269-19.60895517-11.05153803-0.28499387-0.15430161-0.58010696-0.32125122-0.86257122-0.45531601-27.21189413-14.6670867-51.19188547-24.96060764-68.81431284-30.15121344-8.354211-2.99749933-16.65783078-5.76143728-24.96819644-8.25724566-25.64105246-8.21002698-55.52835178-13.79692666-85.27821295-15.85090915l-0.07167014 0c0.86763044-13.33317893 1.76224273-31.01884387 2.80441076-50.16573798 0.16526294 0 0.35835068 0 0.55143843 0.02951147 5.01944074-71.46189239 19.34082477-173.11209851 40.94726907-232.83694885 0.96796912-2.60879343 1.79006753-5.3322594 2.75803664-7.9149147 0.45363016-1.21417686 0.98567551-2.33813342 1.4426782-3.54556522 51.71549908-133.51560151 141.53928662-230.66407837 249.48803458-266.27234216l0-0.37099868c14.26826321-4.70999378 26.28945703-7.62148911 35.78195846-9.4486561 9.49081558 1.8322262 21.51875363 4.73866233 35.78701767 9.4486561l0 0.37099868c107.95043463 35.6082638 197.76831922 132.75674065 249.48972126 266.27234216 0.45700268 1.21586352 0.98736218 2.33138836 1.44773739 3.54556522 0.96122324 2.5826553 1.78669501 5.30612127 2.75129078 7.9149147 21.61066058 59.72569327 35.93120087 161.37505645 40.95232827 232.83694885 0.19477441-0.0278248 0.39039175-0.0278248 0.55143842-0.02782479 1.04048218 19.14520743 1.93087821 36.82918569 2.80019531 50.1640513L846.60857257 585.31135483zM807.58796624 550.7933206800001l-0.41990239-7.82553818c-0.42833496-1.78500832-0.71164215-3.60880361-0.84149232-5.45705035-4.67542392-66.52002475-17.80623963-165.12298406-38.95483831-223.57463544-0.58516616-1.58264593-1.13323206-3.2015484-1.67623874-4.81792126-0.33895762-1.00675525-0.67285601-2.01856887-1.19141126-3.33645694-0.43255042-1.01518699-0.8541395-2.03290274-1.13997711-2.79850864C715.27848956 178.85471356999994 632.5896778 89.48287032999997 536.49517322 57.785267480000016c-1.55482114-0.51096643-3.05567853-1.12058404-4.49751297-1.81283312-6.52198398-2.03796194-12.90821731-3.77575241-19.09798874-5.19313541-6.14761277 1.40895127-12.50770716 3.13999585-19.01535728 5.16868314-1.46375794 0.70489709-2.98822385 1.31788807-4.56834017 1.83812914C393.21641028 89.48287032999997 310.52928436 178.85471356999994 262.5364177 302.75639603c-0.37774374 0.99410723-0.77488056 1.958703-1.39461658 3.41740173-0.36509656 0.97134165-0.69224908 1.97303769-1.03120669 2.97473291-0.54637921 1.61805954-1.09781845 3.23949078-1.59360728 4.58183112-21.22532803 58.66581803-34.35530081 157.27130777-39.0273522 223.77699783-0.12984934 1.85499261-0.41315735 3.68637588-0.84655069 5.47475674l-0.40978483 7.66027524c-0.06492508 1.23019739-0.12984934 2.45111929-0.1947744 3.66360947 20.28771331 3.13578039 39.8561965 7.66364777 57.64220013 13.36353332 8.34746512 2.50929849 16.82478039 5.30274875 25.88473141 8.5312782 20.76916828 6.24289224 46.50297061 17.48498923 74.55214078 32.57366502 0.48651416 0.24958108 0.95194858 0.4974755 1.36341926 0.72344722 6.77999679 3.65770733 13.7168248 7.56583951 20.44201491 11.5152866 8.82470462 5.05316767 18.11568659 10.73113056 28.40667792 17.35682574 0.28836722 0.18465601 0.78499897 0.50422056 1.06830698 0.69730829 6.76060373 4.36766364 13.49338267 8.87951129 19.87455597 13.352572 3.74624093 2.56663477 7.49332563 5.27576688 11.24799911 7.99248696l2.01350967 1.45785498 3.32971107 2.39968515c2.12733929 1.52193713 4.25383484 3.04808972 6.2091653 4.52786737 14.74465897 11.01612442 29.0685726 22.62078836 42.83430195 34.70521976 13.74970881-12.07178421 28.03399255-23.65199505 42.68000034-34.59054721 2.11384836-1.59529312 4.22516629-3.11132813 6.33732797-4.62230393l3.52448547-2.54218249 1.27910193-0.92749632c3.93764282-2.85331531 7.87781524-5.70494477 11.49420685-8.18051631 6.68893359-4.69144446 13.43183093-9.20666382 19.55330557-13.15273838l1.69731766-1.10877978c10.20583027-6.57594772 19.4984989-12.25644022 28.07446537-17.16879721 7.06667734-4.1467511 14.00266242-8.05403952 20.61233707-11.62068366 0.32883921-0.1795968 0.78331228-0.41821656 1.26476723-0.66611096 28.15288137-15.1645622 53.98955118-26.46146503 74.82786082-32.72796662 9.07597156-3.23105905 17.52714789-6.01607758 25.20344365-8.31542485 18.22445618-5.83648077 37.95904523-10.41662522 58.32180122-13.57095493C807.71528598 553.1474746399999 807.65204758 551.97376977 807.58796624 550.7933206800001zM676.18621311 466.68122378L483.10174954 268.78221148 384.25764087 370.10189172c-6.84829441 7.01692987-17.94030524 7.01692987-24.78859964 0-6.84829441-7.022832-6.84829441-18.39140579 0-25.41086525l111.23882996-114.02047514c3.4241468-3.51015161 7.90816965-5.26564847 12.39387835-5.26564847 4.48570871 0 8.97057449 1.75549768 12.39303543 5.26564846l205.47834193 210.60149305c6.84829441 7.01692987 6.84829441 18.38803326-1e-8 25.4091786C694.12651834 473.69983951 683.03366457 473.69983951 676.18621311 466.68122378z"  horiz-adv-x="1024" />

    
    <glyph glyph-name="cheliang" unicode="&#58923;" d="M864.02104873 94.97196094000003c-10.1383764-40.85367627-46.11342261-70.64232358-88.68380959-70.64232358-39.51808181 0-73.17691727 25.31895913-85.98648258 61.81171683L334.64081171 86.14135419000002c-12.81040823-36.52058249-46.49538262-61.81171683-86.01430739-61.81171683-42.57038699 0-78.49062735 29.78864731-88.65682854 70.64232358-44.26095959 18.56004126-72.46780472 64.37413531-68.76203576 115.23043653l8.69401153 118.30888064c3.4064404 47.23147705 33.14028103 88.98398108 75.73849283 108.44369385l38.26511883 184.42755148c14.00856455 67.42559756 80.09941141 122.28868213 147.36227563 122.28868213l301.45564436 0c67.26286423 0 133.35371108-54.83525894 147.33445083-122.28868213l38.26511883-184.42755148c42.59821179-19.45886902 72.33205243-61.2122168 75.76631763-108.44369385l8.66702966-118.30888064C936.46187076 159.34525331999998 908.28200832 113.53115928 864.02104873 94.97196094000003L864.02104873 94.97196094000003zM872.74288508 324.55930059c-2.26140408 30.71529986-24.85521057 58.59583457-54.99883603 67.80755759-9.86602973 3.02532413-17.03388867 11.77414234-18.23288791 22.23967126-0.19055813 1.49832779-0.29932855 2.97051745-0.38111628 4.41488151-0.05480667 0.7630763-0.05480667 1.55313445-0.21754 2.34403555l-39.19092847 189.00685301c-9.07597156 43.63279184-53.49966448 80.50750955-96.99670488 80.50750954L361.2675405 690.87981069c-43.52486517 0-87.92157705-36.87471771-96.99670488-80.50750954l-39.21875325-189.03383487c-0.16357627-0.70826963-0.16357627-1.49917072-0.21754001-2.28922889-0.10876959-1.49917072-0.21754001-3.02616705-0.38111627-4.52449484-1.22598111-10.46552976-8.36770193-19.15954129-18.20590605-22.18486459-30.16976358-9.18474115-52.79055195-37.06443292-55.02497414-67.80755759L142.55467166 206.22259597000004c-2.31705368-31.47837617 16.67891052-58.37745163 46.19521115-65.38173348 11.17464231-2.69817078 19.29613568-12.67381301 19.86865384-24.44795536 1.06324778-22.0482702 18.64182981-39.29885513 40.00881143-39.29885513 20.87625202 0 37.99192923 16.21516279 39.84523517 37.74572068 1.19899924 13.59962347 12.3188357 24.03817053 25.64611167 24.03817053l395.72719656 0c13.3272768 0 24.50107617-10.43854788 25.64611166-24.03817053 1.85330594-21.53055872 18.96898315-37.74572067 39.84523517-37.74572068 21.36698163 0 38.94556366 17.27841055 40.00881144 39.29885513 0.59950003 11.828949 8.72099341 21.77676645 19.8956357 24.44795536 29.48847583 7.00428269 48.48528296 33.93118213 46.14040449 65.40955829L872.74288508 324.55930059 872.74288508 324.55930059zM782.47811622 219.79523674999996c-10.79268228-11.03804709-25.91845835-17.46981162-41.15384776-17.46981161-15.2353894 0-30.36116546 6.43260745-41.12686588 17.46981161-10.76485748 11.03804709-17.03304575 26.54494024-17.03304574 42.16144593 0 15.61650567 6.26818744 31.1512228 17.03304574 42.18927072 10.76570122 11.03804709 25.89147647 17.46981162 41.12686588 17.46981162 15.2353894 0 30.36116546-6.43260745 41.15384775-17.46981162 10.76485748-11.03804709 17.03304575-26.57276504 17.03304575-42.18927073C799.51116113 246.34017700000004 793.2429737 230.83328467 782.47811622 219.79523674999996L782.47811622 219.79523674999996zM733.09400467 421.88315881c-5.04220633-6.24120557-13.24633117-9.86602973-22.8113465-9.86602973L313.65494636 412.01712909c-9.53887637 0-17.74300122 3.62482333-23.13849986 10.24798975-5.15013299 6.0776293-7.35841708 14.90823606-5.91405304 24.47409429 0.13659521 0.65430669 0.24536482 1.28078779 0.38196002 1.90811262l31.15122282 138.80401556c3.92415188 21.91251791 25.07359351 40.17238852 46.82253598 40.17238852l298.02137914 0c21.74894165 0 42.89838327-18.31383352 46.79555411-40.17238852l31.15122281-138.83184036c0.16357627-0.62648191 0.27234667-1.25380591 0.38111628-1.90811261C740.72476843 437.14553009 738.54430914 428.31492334 733.09400467 421.88315881L733.09400467 421.88315881zM657.84539771 574.8593160099999L366.17315161 574.8593160099999l-24.71861618-110.05163498 341.08333951 0L657.84539771 574.8593160099999 657.84539771 574.8593160099999zM323.79332276 219.79523674999996c-10.76570122-11.03804709-25.89147647-17.46981162-41.12686588-17.46981161-15.23454565 0-30.36032172 6.43260745-41.12602295 17.46981161-10.79268228 11.03804709-17.06087054 26.54494024-17.06087054 42.16144593 0 15.61650567 6.26818744 31.1512228 17.06087054 42.18927072 10.76570122 11.03804709 25.89147647 17.46981162 41.12602295 17.46981162 15.2353894 0 30.36116546-6.43260745 41.12686588-17.46981162 10.79268228-11.03804709 17.06087054-26.57276504 17.06087054-42.18927073C340.85419331 246.34017700000004 334.58600503 230.83328467 323.79332276 219.79523674999996L323.79332276 219.79523674999996z"  horiz-adv-x="1039" />

    
    <glyph glyph-name="guanbi" unicode="&#58933;" d="M863.68651625 82.22508374999995L557.46597406 388.44562595l300.28888406 300.2946403c11.32991812 11.33183719 11.32991812 29.69091001 0 41.02178719-11.33087812 11.32991812-29.70434063 11.32991812-41.02178718 0L516.44418687 429.46837219l-306.22438031 306.22533937c-11.27427562 11.27427562-29.56427531 11.27427562-40.83855187 0-11.28770719-11.27427562-11.28770719-29.57674687 0-40.8519825l306.21862406-306.21862406L160.34897937 73.36932750000005c-11.32416187-11.33087812-11.32416187-29.68899094 1e-8-41.01986814 11.33087812-11.33183719 29.69762531-11.33183719 41.0285025 0l315.24514406 315.24994033 306.22725751-306.2272575c11.27427562-11.27427562 29.54892563-11.27427562 40.8366328 0C874.96175188 52.64737689000003 874.96175188 70.95080718999998 863.68651625 82.22508374999995z"  horiz-adv-x="1024" />

    
    <glyph glyph-name="jiantou24" unicode="&#59180;" d="M874.07547733 408.59541808l-256.56979911 257.35744474c-5.80964503 5.82542222-13.55017482 9.02212267-21.78465185 9.02212266-8.29758578 0-16.09879703-3.244032-21.96912355-9.11557215-11.16903348-11.18723792-12.26615467-28.69020445-2.62750815-40.97092266l208.67754666-209.38752-609.9314157 0c-17.02479645 0-30.88323318-13.91911822-30.88323318-31.03736415s13.85843675-31.02280059 30.88323318-31.0228006l609.91563852 0-213.72867318-214.33063347c-6.42738252-12.7916563-4.43338903-27.56152889 5.16156681-37.18682548 5.7465363-5.7465363 13.51862045-8.89833245 21.89145125-8.89954608 9.207808 0 17.99812741 3.70763852 24.73498549 10.44328296l17.11945956 17.10368237 46.98203022 47.13737481 8.86677807 8.71143349 183.23258785 183.89522963c6.07057541 6.10212978 9.14712652 14.46161067 8.69686993 23.54441482l-0.03155437 0.60196028 0.03155437 0.6177375c0.44782933 9.09979497-2.62750815 17.45927585-8.66774282 23.51286043l0 0zM874.07547733 408.59541808z"  horiz-adv-x="1028" />

    
    <glyph glyph-name="gexingdingzhi" unicode="&#58939;" d="M178.5386174 698.65290695C131.27806072 650.10880839 162.32464426 592.43022397 193.50091548 562.07950916c5.43430052-5.29201475 13.37788013-5.94712429 17.74206961-1.46436357L317.40341759 669.6583593299999c4.36344791 4.48201987 3.92695517 11.98540102-1.93865138 17.69612296C285.17333774 716.8448082699999 225.79991495 747.19626393 178.5386174 698.65290695zM204.59480389 673.28517852c14.77406495 15.17572747 40.35151777 21.54526467 70.4687929-0.3008761l-68.28484602-70.138274C184.13595482 632.36822121 189.82147979 658.11019191 204.59480389 673.28517852zM324.32209123 634.24462214L246.82865085 554.64653004c-11.42070233-11.7312124-11.16947786-30.49744714 0.5609937-41.91740788l111.19825866-87.56094038c11.73047156-11.41996147 30.49744714-11.16947786 41.91814946 0.56173454l56.80411651 58.34555197c11.41996147 11.73047156 11.16799543 30.49744714-0.56173456 41.91740788L366.23949912 634.8056158300001C354.50976914 646.2270590200001 335.74279356 645.97509369 324.32209123 634.24462214zM420.97675902 510.31544135c2.93243286-2.85461939 2.99542419-7.54710451 0.1400632-10.47953736l-37.33534316-38.34913345c-2.85536097-2.93317371-7.54710451-2.99542419-10.47953738-0.14006322l-88.07154088 69.18451093c-2.93243286 2.85536097-2.99542419 7.54710451-0.1400632 10.47953736l53.88724663 55.34938692c2.85461939 2.93317371 7.54710451 2.99542419 10.47953736 0.14006322L420.97675902 510.31544135zM653.96767992 235.79247052000005l-45.55312093-46.78923301 103.19465186-54.89659033 103.19317016-54.89733194-57.64227251 101.68656493-57.64079007 101.68656492L653.96767992 235.79247052000005zM738.28864152 153.70066230999998l-66.28913158 47.33021787 17.19960303 17.66722101L738.28864152 153.70066230999998zM614.96674434 603.49538422l74.10197924-72.14729992-27.18661368-27.92317721-74.10197922 72.14729991 27.18661366 27.92317721ZM669.34210154 659.3425982599999l74.10144768-72.14678284-27.18713074-27.92370804-74.10144767 72.14678283 27.18713073 27.92370805ZM560.59369587 547.64869087l74.10197924-72.14729991-27.1876471-27.92423961-74.10197924 72.14729993 27.1876471 27.9242396ZM451.84784517 435.95539327l74.10091683-72.14626649-27.18713074-27.92370806-74.10091685 72.14626649 27.18713076 27.92370807ZM343.10256367 324.26208045l74.10144768-72.14678284-27.18764711-27.92423961-74.10144767 72.14678284 27.1876471 27.92423961ZM397.47302022 380.10861374l74.10144768-72.14678284-27.18713073-27.92370804-74.10144768 72.14678284 27.18713073 27.92370804ZM288.72960209 268.4147223l74.10144768-72.14678286-27.1876471-27.92423959-74.10144768 72.14678284 27.1876471 27.9242396ZM703.02311982 693.94115386l-6.48736758-6.6630026 151.79951845-147.786599-20.72785909-21.29033521 0.2356615-0.23047408-33.64405024-34.55705407 0.00074086-0.00074085-27.1870663-27.92443586-27.18706629-27.92443587-27.18558459-27.92517673-0.00074085 0.00074087-27.18632545-27.92369501-7.35813051-7.55822093-19.82819493-20.36547408L506.23295656 491.8078418l-27.18780786-27.92517672 151.8002593-147.78659899-19.57178303-20.10387478 0.23492062-0.22973322-34.7993854-35.7442561-27.18706632-27.92517671-27.18632544-27.92443586-27.18632544-27.92443587-27.18632544-27.92443586-6.20353618-6.37250135-20.98204768-21.55267536-0.23640306 0.23121564-27.18632545-27.92517671-6.9787001-7.16767483-20.20836619-20.75676104L234.37044444 212.56422547l-6.03753587-6.20131289c-11.58744421-11.90314172-11.33251403-30.94579715 0.5698861-42.53324137l136.26511027-132.66200486c11.90240086-11.58818505 30.94431544-11.33251403 42.53175892 0.5698861l474.6894704 487.57898287c11.58892592 11.90314172 11.33251403 30.94357386-0.57062768 42.53175893L745.5541379 694.51029912C733.65173703 706.09774333 714.60982318 705.84355473 703.02311982 693.94115386z"  horiz-adv-x="1051" />

    
    <glyph glyph-name="jiantouzuo" unicode="&#58913;" d="M293.28190104 416.90625l328.95703126 328.95703125c18.19335938 18.19335938 47.61914063 18.19335938 65.81249999 0 18.140625-18.140625 18.19335938-47.61914063 0-65.8125l-296.05078124-296.05078125 296.05078124-296.05078125c18.140625-18.140625 18.19335938-47.61914063 1e-8-65.8125s-47.61914063-18.140625-65.8125 0l-328.95703126 328.95703125c-18.140625 18.19335938-18.140625 47.61914063 1e-8 65.8125z"  horiz-adv-x="1024" />

    
    <glyph glyph-name="qiandai" unicode="&#58899;" d="M405.39801794 531.89969l230.40687635 1e-8c15.53868952 0 30.49934107 6.57679065 40.47305356 18.50200049 23.77779373 28.25882473 46.32721435 62.95001386 51.38628414 94.02739288 10.19043594 62.22721921-16.47837241 93.81067026-93.81067025 93.81067025s-51.16939672-50.73578586-81.2351261-54.92763309c-22.40466476-3.10773806-21.60973855 26.4519201-56.80666928 54.85533756-25.29567937 20.30874033-53.62663568-37.07613172-87.01699137-37.43744706-38.95516792-0.50590722-93.7383739 10.26273147-93.7383739-56.30076204 0-26.88569577 23.56107028-63.23903284 49.29036053-93.37689461C374.68195425 538.98255268 389.57014466 531.89969 405.39801794 531.89969zM692.82845181 472.63578176c-12.28635955 13.9486723-30.13786093 21.75433044-48.71215778 21.75433045L398.24302453 494.39011221c-17.77920584 0-34.90791174-7.15499423-47.1944361-20.01972134C273.78842132 393.42428293 202.52717251 277.85944785000004 202.52717251 193.58887920999996c0-74.29685614 74.65817065-168.10752558 166.73423182-168.10752557l285.47910131 0c92.07606115 0 166.73423182 93.01557925 166.73423182 168.10752557C821.47490225 279.37716869999997 764.16216178 391.68967465 692.82845181 472.63578176zM617.73667029 370.36911986999996l-49.43478762-89.69111774c-4.33643994-7.87778888 1.37312896-17.5623176 10.33502782-17.56231759l14.02096866 0c6.50465992 0 11.85274868-5.27595803 11.85274869-11.85274869l0 0c0-6.50465992-5.27595803-11.85274868-11.85274869-11.85274868l-35.26939187 0c-6.86597443 0-12.35865592-5.49284546-12.43095145-12.35865592l0-5.85416079c0-6.50465992 5.27595803-11.85274868 11.85274869-11.8527487l35.84742983 0c6.50465992 0 11.85274868-5.27595803 11.85274869-11.85274868s-5.27595803-11.85274868-11.85274869-11.85274869l-35.84742983 0c-6.50465992 0-11.85274868-5.27595803-11.85274869-11.85274869l0-30.13786093c0-6.50465992-5.27595803-11.85274868-11.85274869-11.85274869l-21.46514666 0c-6.50465992 0-11.85274868 5.27595803-11.85274869 11.85274869l0 30.13786093c0 6.50465992-5.27595803 11.85274868-11.8527487 11.85274869l-35.48611532 0c-6.50465992 0-11.85274868 5.27595803-11.85274869 11.85274869s5.27595803 11.85274868 11.85274869 11.85274868l35.41381898 0c6.57695544 0 11.85291348 5.27595803 11.92504504 11.8527487l0.07229635 5.78186443c0.07229636 6.86597443-5.49284546 12.50324781-12.43095145 12.5032478l-34.98020809 0c-6.50465992 0-11.85274868 5.27595803-11.8527487 11.85274869l0 0c0 6.50465992 5.27595803 11.85274868 11.8527487 11.85274869l13.65965331 0c9.0341944 0 14.67146777 9.68452871 10.33502784 17.56231759l-49.43495243 89.69095378c-4.33643994 7.87778888 1.37312896 17.56248239 10.33502784 17.56248238l23.56107028 0c4.48086704 0 8.60058352-2.5295353 10.55191526-6.50465991l40.25616613-80.29544402c4.33643994-8.67271508 16.76739139-8.67271508 21.17612686 0l40.25616614 80.29544402c2.02362808 3.97495981 6.07088425 6.50465992 10.55191525 6.50465991l23.56107028 0C616.36337653 387.85930591 622.07310941 378.24690875 617.73667029 370.36911986999996z"  horiz-adv-x="1024" />

    
    <glyph glyph-name="dianhua2" unicode="&#58892;" d="M647.43670631 248.90936255999998c-18.88549828 18.26751685-55.84075927 48.89465308-90.76904297 48.9193728-11.66748023 0-22.44506859-3.36181617-31.31927467-9.76409937l-22.27203345-16.11694312c-34.87884498 7.41577148-70.64758325 37.82043458-96.08367944 81.89483619-25.48553491 44.07440162-33.9395144 90.22521997-22.9641726 124.14001465l25.09002662 11.27197265c31.9866941 14.38659667 42.36877417 55.71716285 29.34173607 116.47705102-10.50567651 48.89465308-46.17553734 141.31988549-106.26800537 141.3198855-5.78430176 0-11.61804223-0.91461158-17.15515113-2.71911645L272.54473877 730.58844018C236.13330078 718.77264381 208.71966529 688.21966529 200.98254394 650.7947390100001 178.19140648 540.9918823200001 206.7668457 405.90124488 279.36724854 280.15448022c72.64984155-125.72204566 175.43243432-217.99896264 281.87347412-253.10028077 10.82702637-3.53485132 22.04956031-5.36407447 33.42041039-5.36407445 26.4495852 0 51.86096167 9.73937964 71.46331811 27.43835448l33.12377954 29.91027809c11.76635766 10.60455323 28.89678979 35.20019555 11.37084937 80.78247046C700.03924585 187.35845923 675.8638308 221.49572778000004 647.43670631 248.90936255999998zM675.09753394 105.80969261999996l-33.12377954-29.91027807c-12.9776001-11.71691895-29.83612037-18.16864013-47.31262208-18.16864014-7.5146482 0-14.9551394 1.18652344-22.09899901 3.55957031-98.23425317 32.38220239-193.72467017 118.72650146-261.99920654 236.90917994C242.33782983 416.35748267 215.22082519 542.2278444799999 236.28161621 643.47784424 241.42321753 668.24652099 259.54241968 688.49157715 283.643677 696.30285621l42.46765161 13.79333496C328.1383059 710.7141726 330.14056421 711.0355224699999 332.1922605 711.0355224699999c28.03161622 0 59.37561059-58.33740258 71.06780982-112.868042 8.57757592-39.92156959 5.04272461-69.75769067-8.84948706-76.06109643l-38.14178443-17.10571312-0.96405029-2.00225832c-21.18438744-44.54406762-13.34838867-108.61633325 20.46752929-167.17620825 33.84063697-58.60931373 85.4049685-97.39379859 134.59625244-101.29943848l2.22473145-0.17303442 33.86535668 24.49676489c2.71911645 1.9775393 6.03149391 2.9415896 10.20904566 2.9415896 33.49456811-0.024719 100.95336891-64.4183352 120.30853247-114.8455813C682.14251685 133.59411596999996 685.99871802 115.59851098000001 675.09753394 105.80969261999996zM797.60607886 557.60321045c-39.62493873 78.08807373-107.28149437 136.05468773-190.56060814 163.24584937-1.77978516 0.59326172-3.68316674 0.91461158-5.58654762 0.91461157-7.81127906 0-14.68322754-4.99328589-17.10571312-12.4337771-3.06518531-9.41802979 2.10113501-19.60235572 11.54388451-22.69226075 74.10827613-24.20013404 134.3490603-75.81390357 169.57397484-145.29968236 35.32379126-69.51049781 41.40472388-148.58734155 17.20458984-222.69561768-3.08990502-9.44274878 2.10113501-19.62707543 11.56860352-22.69226073 1.75506616-0.59326172 3.63372802-0.91461158 5.56182862-0.91461159 7.81127906 0 14.73266625 4.99328589 17.15515112 12.4337771C844.12768578 390.69891334 837.2310183 479.51513672 797.60607886 557.60321045zM573.30371117 617.39904761c-1.80450415 0.56854272-3.68316674 0.88989258-5.61126732 0.88989258-7.81127906 0-14.73266625-4.99328589-17.10571313-12.4337771-3.08990502-9.41802979 2.10113501-19.62707543 11.5191648-22.69226074 46.4227295-15.12817383 84.14428734-47.51037622 106.29272435-91.16455054 22.14843773-43.65417504 26.05407691-93.21624756 10.82702637-139.58953833-3.06518531-9.44274878 2.12585473-19.62707543 11.56860352-22.74169946 1.82922387-0.56854272 3.70788575-0.86517358 5.61126734-0.86517358 7.81127906 0 14.70794654 4.99328589 17.10571313 12.40905738 18.11920142 55.54412842 13.5214231 114.87030029-12.9776001 167.07733154C673.98516822 560.52008032 628.79840088 599.2551271899999 573.30371117 617.39904761zM528.31469727 479.73760987c38.90808129-12.73040796 60.16662574-54.67895484 47.4609375-93.56231714-3.06518531-9.41802979 2.12585473-19.60235572 11.56860351-22.71697974 1.80450415-0.56854272 3.68316674-0.88989258 5.56182862-0.88989258 7.83599877 0 14.73266625 5.01800561 17.15515113 12.43377709 18.88549828 57.74414086-12.80456567 120.08605933-70.54870582 138.97155762-1.77978516 0.59326172-3.68316674 0.91461158-5.61126733 0.91461158-7.81127906 0-14.68322754-4.99328589-17.13043213-12.40905738C513.70562744 492.98712182 518.87194848 482.80279517 528.31469727 479.73760987z"  horiz-adv-x="1024" />

    
    <glyph glyph-name="weixin" unicode="&#58969;" d="M321.661865 511.55126953c0-7.91015648 3.21350074-15.57312012 8.65173364-21.0113523 5.43823219-5.43823219 13.34838867-8.65173364 21.0113523-8.65173364 7.91015648 0 15.57312012 3.21350074 21.01135229 8.65173364 5.43823219 5.43823219 8.65173364 13.34838867 8.65173364 21.0113523 0 7.91015648-3.21350074 15.57312012-8.65173364 21.0113523-5.43823219 5.43823219-13.34838867 8.65173364-21.01135229 8.65173364-7.91015648 0-15.57312012-3.21350074-21.0113523-8.65173364C324.87536645 527.12438965 321.661865 519.21423316 321.661865 511.55126953L321.661865 511.55126953zM321.661865 511.55126953M553.52832031 357.30322265999996c0-6.17980933 2.47192359-12.11242652 6.92138649-16.56188941 4.20227075-4.20227075 10.38208008-6.92138648 16.56188941-6.92138648 6.17980933 0 12.11242652 2.47192359 16.56188939 6.92138648 4.20227075 4.20227075 6.92138648 10.38208008 6.92138648 16.56188941 0 6.17980933-2.47192359 12.11242652-6.92138648 16.56188941-4.20227075 4.20227075-10.38208008 6.92138648-16.56188939 6.92138648-6.17980933 0-12.11242652-2.47192359-16.56188941-6.92138648C556.24743676 369.66284203 553.52832031 363.48303199 553.52832031 357.30322265999996L553.52832031 357.30322265999996zM553.52832031 357.30322265999996M473.68518042 511.55126953c0-7.91015648 3.21350074-15.57312012 8.65173364-21.0113523 5.43823219-5.43823219 13.34838867-8.65173364 21.0113523-8.65173364 7.91015648 0 15.57312012 3.21350074 21.01135229 8.65173364 5.43823219 5.43823219 8.65173364 13.34838867 8.65173365 21.0113523 0 7.91015648-3.21350074 15.57312012-8.65173365 21.0113523-5.43823219 5.43823219-13.34838867 8.65173364-21.01135229 8.65173364-7.91015648 0-15.57312012-3.21350074-21.0113523-8.65173364C476.89868188 527.12438965 473.68518042 519.21423316 473.68518042 511.55126953L473.68518042 511.55126953zM473.68518042 511.55126953M751.03503394 735.01318336L272.96496606 735.01318336C209.68371558 735.01318336 158.51489234 683.59716797 158.51489234 620.06872535l0-477.5756836c0-63.52844262 51.41601539-114.94445801 114.69726586-114.944458l478.0700686 0c63.28124977 0 114.69726586 51.41601539 114.69726587 114.944458L865.97949195 620.06872535C865.73229981 683.59716797 814.31628442 735.01318336 751.03503394 735.01318336L751.03503394 735.01318336zM423.75231933 261.1453855c-26.69677734 0-48.20251465 5.43823219-75.14648413 10.87646509l-74.899292-37.57324243 21.50573731 64.51721192c-53.64074683 37.57324242-85.77575708 85.77575708-85.77575707 144.85473608 0 102.09045434 96.65222144 182.42797852 214.56298804 182.42797852 105.55114722 0 197.75390648-64.27001977 216.29333519-150.54016113-6.92138648 0.74157715-13.59558082 1.23596215-20.76416014 1.23596215-101.84326148 0-182.42797852-76.13525414-182.42797853-169.82116699 0-15.57312012 2.47192359-30.65185523 6.67419434-44.98901392C437.34790016 261.39257836 430.67370582 261.1453855 423.75231933 261.1453855L423.75231933 261.1453855zM740.15856958 185.99890136l16.06750513-53.64074683-58.83178688 32.13500953c-21.50573731-5.43823219-43.01147461-10.87646508-64.27001976-10.87646508-102.09045434 0-182.42797852 69.70825195-182.42797852 155.73120118 0 85.77575708 80.33752417 155.73120117 182.42797852 155.73120117 96.4050293 0 182.18078637-69.9554441 182.18078636-155.73120117C815.30505372 261.1453855 783.17004418 218.13391089000004 740.15856958 185.99890136L740.15856958 185.99890136zM740.15856958 185.99890136M670.45031762 357.30322265999996c0-6.17980933 2.47192359-12.11242652 6.92138648-16.56188941 4.20227075-4.20227075 10.38208008-6.92138648 16.56188942-6.92138648 6.17980933 0 12.11242652 2.47192359 16.56188941 6.92138648 4.20227075 4.20227075 6.92138648 10.38208008 6.92138647 16.56188941 0 6.17980933-2.47192359 12.11242652-6.92138647 16.56188941-4.20227075 4.20227075-10.38208008 6.92138648-16.56188941 6.92138648-6.17980933 0-12.11242652-2.47192359-16.56188942-6.92138648C672.92224122 369.66284203 670.45031762 363.48303199 670.45031762 357.30322265999996L670.45031762 357.30322265999996zM670.45031762 357.30322265999996"  horiz-adv-x="1024" />

    
    <glyph glyph-name="tixian" unicode="&#59004;" d="M849.93069565 519.9136008c0 16.28514624-13.20164291 29.48594622-29.48594623 29.48594622L171.75140692 549.3995462c-16.28514624 0-29.48594622-13.2008-29.48594622-29.48594622l0-439.34228202c0-16.28430332 13.2008-29.48594622 29.48594623-29.48594623l648.69334249 0c16.28430332 0 29.48594622 13.20164291 29.48594623 29.48594623L849.93069565 192.61791330000005 664.16839264 192.61791330000005l0 0.01855013c-0.49157336-0.00674506-0.98145922-0.01855014-1.47387552-0.01855013-59.43901272 0-107.62412421 48.18511147-107.62412421 107.62412421s48.18511147 107.62412421 107.62412421 107.6241242c0.49325921 0 0.9831459-0.01180426 1.47387552-0.01855014l0 0.01855014 185.76230301 0L849.93069565 519.9136008zM599.29931143 300.24203751000005c0-35.01213712 28.38306858-63.39520568 63.39520569-63.3952057s63.39520568 28.38306858 63.39520568 63.3952057-28.38306858 63.39520568-63.39520568 63.39520568S599.29931143 335.25417461999996 599.29931143 300.24203751000005zM779.15852274 576.83572623l-36.60237103 128.13106503c-3.68300254 12.8930397-17.16205133 20.37203147-30.10568226 16.70504864L201.30396408 576.83572623 779.15852274 576.83572623z"  horiz-adv-x="1024" />

    
    <glyph glyph-name="canpai" unicode="&#59031;" d="M464 334.08000000000004c-7.2 0-13.92 2.88-19.2 8.16L367.04 420c-10.56 10.56-10.56 28.32 0 38.88 10.56 10.56 28.32 10.56 38.88 0L483.2 381.12c10.56-10.56 10.56-28.32 0-38.88C477.92 336.96000000000004 471.2 334.08000000000004 464 334.08000000000004zM464 334.08000000000004c-7.2 0-13.92 2.88-19.2 8.16-10.56 10.56-10.56 28.32 0 38.88l155.52 155.52c10.56 10.56 28.32 10.56 38.88 0 10.56-10.56 10.56-28.32 0-38.88L483.2 342.24C477.92 336.96000000000004 471.2 334.08000000000004 464 334.08000000000004zM502.88 14.399999999999977c-15.36 0-27.36 12.48-27.36 27.36l0 160.32c0 15.36 12.48 27.36 27.36 27.36s27.36-12.48 27.36-27.36l0-160.32C530.24 26.879999999999995 518.24 14.399999999999977 502.88 14.399999999999977zM800.48 169.44000000000005l-215.04 0c-15.36 0-27.36 12.48-27.36 27.36s12.48 27.36 27.36 27.36l215.04 0c7.68 0 13.92 6.24 13.92 13.92l0 398.4c0 7.68-6.24 13.92-13.92 13.92L223.52 650.4c-7.68 0-13.92-6.24-13.92-13.92l0-398.4c0-7.68 6.24-13.92 13.92-13.92l199.2 0c15.36 0 27.36-12.48 27.36-27.36s-12.48-27.36-27.36-27.36L223.52 169.44000000000005c-37.92 0-68.64 30.72-68.64 68.64l0 398.4c0 37.92 30.72 68.64 68.64 68.64l576.96 0c37.92 0 68.64-30.72 68.64-68.64l0-398.4C869.12 200.15999999999997 838.4 169.44000000000005 800.48 169.44000000000005z"  horiz-adv-x="1024" />

    
    <glyph glyph-name="paimaichui" unicode="&#59064;" d="M509.75 105.14999998999997L174.95 105.14999998999997c-14.4 0-25.65 11.7-25.65 25.65 0 14.4 11.7 25.65 25.65 25.65l334.8 0c14.4 0 25.65-11.7 25.65-25.65C535.4 116.84999999000001 524.15 105.14999998999997 509.75 105.14999998999997zM849.05 194.24999999c-4.5 0-9 0.9-13.05 3.6L295.55 509.69999999c-12.15 7.2-16.65 22.95-9.45 35.1 7.2 12.15 22.95 16.65 35.1 9.45l540.45-311.85c12.15-7.2 16.65-22.95 9.45-35.1C866.6 198.74999999 857.6 194.24999999 849.05 194.24999999zM497.15 486.29999999c-4.5 0-9 0.9-13.05 3.6L334.25 576.2999999900001c-12.15 7.2-16.65 22.95-9.45 35.1 7.2 12.15 22.95 16.65 35.1 9.45l149.85-86.85c12.15-7.2 16.65-22.95 9.45-35.1C514.7 490.79999999 506.15 486.29999999 497.15 486.29999999zM569.15 533.99999999c-4.5 0-9 0.9-13.05 3.6L339.65 662.69999999c-12.15 7.2-16.65 22.95-9.45 35.1 7.2 12.15 22.95 16.65 35.1 9.45l216.9-125.1c12.15-7.2 16.65-22.95 9.45-35.1C586.7 538.49999999 578.15 533.99999999 569.15 533.99999999zM419.75 352.64999998999997c-4.5 0-9 0.9-13.05 3.6L256.85 442.64999999c-12.15 7.2-16.65 22.95-9.45 35.1 7.2 12.15 22.95 16.65 35.1 9.45l149.85-86.85c12.15-7.2 16.65-22.95 9.45-35.1C437.3 357.14999998999997 428.75 352.64999998999997 419.75 352.64999998999997zM414.8 266.24999999c-4.5 0-9 0.9-13.05 3.6l-216.9 125.1c-12.15 7.2-16.65 22.95-9.45 35.1 7.2 12.15 22.95 16.65 35.1 9.45l216.9-125.1c12.15-7.2 16.65-22.95 9.45-35.1C432.35 270.74999999 423.8 266.24999999 414.8 266.24999999z"  horiz-adv-x="1024" />

    
    <glyph glyph-name="weixin-copy" unicode="&#58965;" d="M561.1484375 384.04943848c-8.45150757 0-16.90548706-7.84835815-16.90548706-17.50946045 0-7.8500061 8.44985962-15.69918823 16.90548706-15.69918824 12.68344117 0 21.74057007 7.8500061 21.74057007 15.69918823 0 9.66027833-9.05548096 17.50946045-21.74057007 17.50946045v0zM505.59359742 465.57348633c13.28494263 0 21.74057007 8.45150757 21.74057006 21.1357727 0 13.28494263-8.45480347 21.13412476-21.74057006 21.13412476-12.68096924 0-24.75878906-7.8500061-24.75878907-21.13412476-0.00082398-12.68591308 12.0786438-21.13577271 24.75878907-21.1357727v0zM512.23648071 754.3831787199999c-204.69754028 0-370.63449097-165.93695068-370.63449097-370.63449098 0-204.69589234 165.93695068-370.633667 370.63449097-370.63366699 204.69589234 0 370.633667 165.93695068 370.633667 370.63366699 0.00082398 204.69754028-165.93612671 370.63449097-370.633667 370.63449097v0zM442.18875122 289.84854126000005c-22.34536743 0-38.64935302 3.62054443-59.78430176 9.6611023l-60.98977661-30.8001709 17.51522827 51.9359436c-42.8755188 30.19042969-68.2399292 68.23416138-68.2399292 114.73269653 0 82.12554932 77.29541016 144.92807007 171.49960328 144.92807007 83.33267212 0 157.6090393-49.5184021 172.10110473-119.56942749-6.03808594 1.2104187-11.47467041 1.81192016-16.30480957 1.81192017-82.12554932 0-145.52957153-61.59210205-145.52957153-135.86846924 0-12.67932128 1.81192016-24.15316773 4.83096313-36.23181153-4.83096313-0.59985352-10.26754761-0.59985352-15.09851074-0.59985351v0zM694.00115967 230.67068482000002l12.0753479-43.48114014-45.89291382 25.96508789c-17.51110839-3.62054443-34.41989136-9.05548096-51.93099976-9.05548096-80.91925049 0-144.92807007 55.55401612-144.92807006 124.39379883 0 68.84060669 64.01046753 124.39544677 144.92807006 124.39544678 76.68896484 0 145.52957153-55.55484008 145.52957153-124.39544678 0-38.64440918-25.96508789-73.06430054-59.78100585-97.8230896v0zM386.02828979 507.84338379c-12.68096924 0-25.96508789-7.8500061-25.96508789-21.13412476 0-12.68508911 13.28411865-21.13989258 25.96508789-21.13989257 12.07946778 0 21.74057007 8.45480347 21.74057008 21.13989257 0 13.28411865-9.66110229 21.13412476-21.74057008 21.13412475v0zM655.95825195 384.04943848c-9.05960083 0-16.90960693-7.84835815-16.90960693-17.50946045 0-7.8500061 7.8500061-15.69918823 16.90960693-15.69918824 12.0753479 0 21.13412476 7.8500061 21.13412476 15.69918823 0 9.66027833-9.05877685 17.50946045-21.13412476 17.50946045v0zM655.95825195 384.04943848z"  horiz-adv-x="1024" />

    
    <glyph glyph-name="ershoucheguanli" unicode="&#58890;" d="M876.61912742 340.64112810999995L876.61912742 415.52598541c0 23.92559696-20.40623258 43.32100341-45.57757632 43.32100341l-39.07538661 0L714.24966074 669.65383936 310.69965578 669.65383936 210.32405224 458.84698882 192.95770804 458.84698882c-25.17134302 0-45.57757632-19.39540718-45.5775763-43.3210034l0-74.88411647 0-37.05373505 0-74.88411646c0-23.92559696 20.40549173-43.32100341 45.5775763-43.32100339l0.00296415 0 0-99.83536024 199.68998844 0L392.65066063 185.3822732l238.70090203 0 0-99.83536025 199.68998844 0L831.0415511 185.3822732c25.17134302 0 45.57757632 19.39540718 45.57757631 43.3210034L876.61912742 303.58739305999995l0 0L876.61912742 340.64112810999995 876.61912742 340.64112810999995zM334.09612512 632.60010431l354.3218942 0 63.83987968-173.16618397L251.64341291 459.43392034 334.09612512 632.60010431zM184.43460762 415.52598541c0 2.96429895 3.50083654 6.26726908 8.52384128 6.26726908l72.62828513 0 0-81.15138482L184.43460762 340.64186895 184.43460762 415.52598541zM355.59692558 122.60064727999998l-125.58251834 0 0 62.6245173 125.58251834 0L355.59692558 122.60064727999998zM793.98781604 122.60064727999998l-125.58251834 0 0 62.6245173 125.58251834 0L793.98781604 122.60064727999998zM839.56539238 228.70327659999998c0-2.96429895-3.50083654-6.26726908-8.52384128-6.26726908L192.95770804 222.43600823999998c-5.02300402 0-8.52384128 3.30297013-8.52384126 6.26726908L184.43386678 303.58739305999995l99.67825234 0c10.23201862 0 18.52686753 8.29484891 18.52686752 18.52686752L302.63898664 421.79325377l418.71980344 0 0-99.67825234c0-10.23201862 8.29410805-18.52686753 18.52686752-18.52686753l99.67899392 0L839.56465152 228.70327659999998zM839.56539238 340.64112810999995L758.41326598 340.64112810999995 758.41326598 421.79325377l72.62828512 0c5.02300402 0 8.52384128-3.30297013 8.52384128-6.26726908L839.56539238 340.64112810999995zM653.8468854 298.85118457L371.70121989 298.85118457 371.70121989 253.27360826999995 653.8468854 253.27360826999995 653.8468854 298.85118457Z"  horiz-adv-x="1024" />

    
    <glyph glyph-name="youjiantou1" unicode="&#58971;" d="M705.49089883 412.07561477L374.65958984 742.90692376c-15.50772953 15.50772953-40.64275988 15.50772953-56.15048867 0-15.50772953-15.50772953-15.50772953-40.64350072 0-56.15048868l302.75569351-302.7556935L318.50910117 81.24430648999999c-15.50772953-15.50772953-15.50772953-40.64350072 0-56.15048867 7.75386476-7.75386476 17.9310436-11.63042599 28.07561476-11.630426s20.32175073 3.87730281 28.07561475 11.630426L705.49089883 355.92438523C720.99862764 371.43211403 720.99862764 396.56788597 705.49089883 412.07561477z"  horiz-adv-x="1024" />

    
    <glyph glyph-name="big-Pay" unicode="&#59116;" d="M859.3753035 255.49279118000004v342.03507899c0 73.73043894-59.83528197 133.56572092-133.6091727 133.56572093h-427.5757134c-73.73043894 0-133.56572092-59.83528197-133.56572091-133.56572092v-427.57571341c0-73.73043894 59.79183018-133.56572092 133.56572091-133.5657209h427.5757134c65.69692791 0 120.36579251 47.50366508 131.52493537 109.98805761-35.43203473 15.32761753-188.97254168 81.63287044-268.95569265 119.80164349-60.87740064-73.73043894-124.62117076-117.97739267-220.71407139-117.97739268s-160.22701264 59.18422937-152.54184007 131.61183895c5.08023798 47.54711687 37.69007921 125.27222335 179.33203875 111.94193959 74.64220225-6.99066817 108.81558359-20.92927695 169.69298423-41.03369415 15.76213538 28.87588442 28.83243262 60.6608659 38.77564966 94.48590874h-269.95435953v26.7481953h133.56572092v48.02436232h-162.91885078v29.44003343h162.91885078v69.30125356c0 0 1.47663653 10.85570455 13.46063911 10.85570455h66.78249836v-80.15695811h173.68765176v-29.44003343h-173.68765176v-48.02436232h141.68613554c-13.02684546-53.01769674-32.78364837-101.73728764-57.5345099-144.2910701 41.1640495-14.89382387 228.48614753-72.16762305 228.48614752-72.16762305v0 0zM356.98358071 194.05051732000004c-101.52002871 0-117.5863266 64.09066022-112.20192611 90.8823073 5.34094869 26.66129171 34.73753034 61.44227386 91.18646979 61.44227385 64.87206817 0 122.97072709-16.58699513 192.7064985-50.54311752-48.97957743-63.78649771-109.16247368-101.78073942-171.69031799-101.78073943v0z"  horiz-adv-x="1024" />

    
    <glyph glyph-name="youjiantou" unicode="&#59051;" d="M711.29885864 384c0 9.26971435-4.63485718 13.90457153-9.26971435 18.53942872L354.41485596 750.15371704C345.1451416 754.78857422 331.24057007 754.78857422 321.97085571 750.15371704c-9.26971435-9.26971435-9.26971435-23.17428589 0-32.44400024L655.68057251 384c0 0 0 0 0 0l-333.7097168-329.07485962c-9.26971435-9.26971435-9.26971435-23.17428589 0-32.44400025 9.26971435-9.26971435 23.17428589-9.26971435 32.44400025 0l347.61428833 342.97943115c4.63485718 4.63485718 4.63485718 4.63485718 4.63485717 9.26971437C706.66400146 374.73028565000004 711.29885864 379.36514281999996 711.29885864 384z"  horiz-adv-x="1024" />

    
    <glyph glyph-name="daohangzixun" unicode="&#58924;" d="M374.83789062 231.33398437000005c18.19335938-2.84765625 59.484375-5.93261719 78.62695313-5.93261718 167.93261719 0 280.65234375 121.02539063 280.65234375 263.40820312 0 142.3828125-140.87988281 257.71289063-280.65234375 257.71289063-168.16992188 0-304.06640625-115.40917969-304.06640625-257.71289063 0-82.50292969 32.43164063-152.5078125 93.57714844-202.89550781l0-128.54003906L374.83789062 231.33398437000005zM182.38378906 488.80957031c0 123.95214844 121.57910156 224.80664063 271.08105469 224.80664063 116.91210938 0 247.74609375-96.10839844 247.74609375-224.80664063 0-131.38769531-106.47070313-230.42285156-247.74609375-230.42285156-17.56054688 0-57.42773438 3.00585938-73.48535156 5.53710938l-11.31152344 1.81933593-9.96679688-5.61621094-82.74023437-46.43261718L275.9609375 285.9140625l0 15.50390625-12.0234375 9.88769531C210.62304687 355.36523437000005 182.38378906 416.74804688 182.38378906 488.80957031zM301.51074219 489.28417969m-32.98535157 0a32.21225739 32.21225739 0 1 1 65.97070313 0 32.21225739 32.21225739 0 1 1-65.97070313 0ZM436.29980469 489.28417969m-32.98535157 0a32.21225739 32.21225739 0 1 1 65.97070313 0 32.21225739 32.21225739 0 1 1-65.97070313 0ZM571.00976563 489.28417969m-32.98535157 0a32.21225739 32.21225739 0 1 1 65.97070313 0 32.21225739 32.21225739 0 1 1-65.97070313 0ZM769.5546875 549.24316406c5.29980469-15.50390625 7.43554688-39.07617188 6.9609375-56.71582031 44.37597656-27.92285156 61.77832031-99.66796875 61.69921875-139.69335938 0-71.03320313-27.76464844-131.54589844-80.3671875-174.89355468l-13.20996094-10.83691407 0-17.0859375 0-66.60351562-77.8359375 43.6640625-10.99511718 6.16992188-12.41894532-1.97753907c-16.05761719-2.53125-55.60839844-4.4296875-73.01074218-5.53710937-68.26464844-4.19238281-152.42871094 53.39355469-169.75195313 67.078125-14.71289063 0.47460938-28.95117188 0.94921875-46.03710938 2.29394531 40.81640625-61.14550781 120.31347656-105.60058594 215.86816407-105.60058594 19.14257813 0 60.51269531 3.08496094 78.70605468 5.93261719L780.9453125 21.477539060000026 780.9453125 149.93847656000003c61.14550781 50.38769531 93.57714844 120.39257812 93.57714844 202.89550782C874.52246094 419.35839844 848.10253906 502.41503906 769.5546875 549.24316406z"  horiz-adv-x="1024" />

    
    <glyph glyph-name="jiantou3" unicode="&#58885;" d="M321.7940207 367.75144359l346.96283018-346.98817634c10.09701682-10.07094646 26.41749679-10.07094646 36.51378941 0 10.09701682 10.09701682 10.09701682 26.44284293 0 36.53985903l-330.02318979 330.0485352 324.57385712 324.59992675c9.81314413 9.78779869 9.81314413 25.6687117 0 35.45578619-9.7870745 9.83849027-25.6687117 9.83849027-35.48040742 0l-337.0982703-337.07220067c-1.31725393-1.31725393-1.96248398-2.91838055-2.91838055-4.44129685-0.80020086-0.59381428-1.78216704-0.90375659-2.53095285-1.65254167-10.07094646-10.07094646-10.07094646-26.41749679 0-36.48844397z"  horiz-adv-x="1024" />

    
    <glyph glyph-name="yonghu1" unicode="&#58905;" d="M513.60337091 747.54660988C312.80687403 747.54660988 150.05965781 584.79794526 150.05965781 384.00289678 150.05965781 183.20784831000003 312.80687403 20.453390119999995 513.60337091 20.453390119999995s363.54371309 162.75590659 363.54371309 363.54950667C877.147084 584.79794526 714.39841938 747.54660988 513.60337091 747.54660988zM513.60337091 717.25057626c183.75470638 0 333.24912786-149.49442148 333.24912785-333.24912787 0-80.84204794-28.96351218-155.04031778-77.04001664-212.80657052-33.224684 13.87560368-111.6551578 41.09380245-160.20528674 55.42854666-4.14095521 1.3006568-4.79273199 1.50922537-4.79273201 18.74220371 0 14.23190832 5.85730075 28.56375575 11.56831385 40.69404603 6.18318915 13.1803751 13.51929902 35.33933759 16.15392565 55.22142648 7.36652613 8.5513115 17.39519835 25.41494965 23.84489179 57.55768418 5.65018058 28.32911611 3.01700235 38.63877654-0.73868037 48.3140409-0.38527251 1.02111697-0.79951286 2.02630162-1.094985 3.03293467-1.4208734 6.64232969 0.53156018 41.15318656 5.38512468 67.92817712 3.34289074 18.37286353-0.85889696 57.44036436-26.15363001 89.75980282-15.97577334 20.42958141-46.53831125 45.50271035-102.36516596 48.99333715l-30.62047362-0.02896787c-54.88105417-3.46310735-85.47255993-28.5347879-101.44833327-48.96436928-25.29473305-32.32088685-29.49507236-71.38838767-26.15218162-89.74676729 4.88108397-26.78802609 6.80454968-61.29888296 5.41409254-67.80796051-0.29547215-1.13843679-0.7097125-2.14506983-1.12395286-3.16618681-3.72816323-9.67526436-6.39030933-19.9849248-0.70971251-48.3140409 6.4192772-32.14273452 16.4493978-49.00782109 23.84489179-57.55768418 2.60421038-19.8806405 9.94176865-42.04105138 16.15392565-55.22142648 4.52622772-9.64484811 6.65681362-22.76583911 6.65681363-41.31540656 0-17.23297835-0.65177679-17.44154692-4.5276761-18.66833568-50.20564198-14.82285261-130.11492491-43.69801282-159.90836621-56.74513579-49.02230501 58.03130865-78.63759398 132.94073939-78.63759398 214.66920376C180.35424303 567.75760317 329.84866453 717.25057626 513.60337091 717.25057626zM280.94367933 145.71619892c34.11254883 13.92629743 102.12907791 38.18687797 146.80185914 51.381737 25.97692609 8.19500685 25.97692609 30.07298112 25.97692609 47.64633179 0 14.57083225-1.00518465 36.05049849-9.52607989 54.21479344-5.85874915 12.44024634-12.54597903 33.7721765-14.02333975 50.47214626-0.32588839 3.90486717-2.15955377 7.51426221-5.11862039 10.08805634-4.29013968 3.7585795-13.0181551 17.51541495-18.57998372 45.2651739-4.40745951 21.96777463-2.54337788 26.77499056-0.73868035 31.41998649 0.76909661 1.98284984 1.50922537 3.93528341 2.10161804 6.13973737 3.63836288 13.29769492-0.41568876 56.98122382-4.82314825 81.21138811-1.92201734 10.53271294 0.50259233 40.45795797 20.2065289 65.66578746 17.66170264 22.58768678 44.40627695 35.17711759 78.51882577 37.35115528l28.72742414 0.03041625c35.02938151-2.20445394 61.77395582-14.79388477 79.46607472-37.38157153 19.70393658-25.20782948 22.10102678-55.13307452 20.17611264-65.67882299-4.37849164-24.21712876-8.46151113-67.89920927-4.82314824-81.18242026 0.62280893-2.21893787 1.33107305-4.17137146 2.10161805-6.15422129 1.80614591-4.64354753 3.66877913-9.45221185-0.70971251-31.41998649-5.56038022-27.75120735-14.31881189-41.50804282-18.60895157-45.26517391-2.92865038-2.57379413-4.76231575-6.18318915-5.11862039-10.08805634-1.44984127-16.69996977-8.13562274-38.03189993-13.9929235-50.47214627-6.71619772-14.27536011-14.43758011-33.28406811-14.43758011-53.59343289 0-17.57479906 0-39.45277333 26.24198199-47.72164822 42.75076389-12.6328826 111.09318137-36.1084342 147.18713163-50.30268431-60.26473045-59.67233778-143.07369589-96.59476877-234.34562086-96.59476877C423.16137505 50.74797534000004 341.06212211 87.01862954 280.94367933 145.71619892z"  horiz-adv-x="1024" />

    
    <glyph glyph-name="fukuan" unicode="&#58997;" d="M806.04284247 749.6409082L466.11718647 749.6409082c-40.10577676 0-72.73846472-31.51294685-72.73846473-70.23253875l0-89.56914725L159.96588221 389.12568072c-8.59451661-3.31369052-14.74887524-11.50516819-14.74887525-21.26327123l0-326.58488828c0-12.66706796 10.2496756-22.91927317 22.91843023-22.91927316 12.66706796 0 22.91843023 10.25136228 22.91843024 22.91927316L191.05386743 355.41878448l202.32569806 173.94684494 0-172.51428516L292.79850927 252.68931006000003c-8.77327048-9.12993531-8.52706274-23.63513159 0.58094989-32.40840208 9.08693289-8.77242755 23.59044333-8.54898541 32.40840207 0.53879124l112.12922598 116.20177734 18.66628208 16.65108572c0.29089682 0.2681304 29.72203555 27.88643683 63.09166169 27.88643683 16.71853958 0 31.78192099-7.02789121 47.6496936-22.96227558 0.24705148-0.22428506 4.72348471-4.43174497 6.916592-12.44362581 0.49241629-2.50676889 0.96206617-5.05738394 0.91737791-8.19147766-0.13322186-8.45960806-2.75382037-19.8298677-10.76570123-34.10909308-8.72858221-14.81632993-24.08370254-33.43707998-50.62695612-55.86393686l-90.57590167-79.22925137L295.19229229 59.04834888000005c-9.62319453-8.23785261-10.74209189-22.6949881-2.48316036-32.31902554 4.52112232-5.28166901 10.94361136-8.01188003 17.38970974-8.01188003 5.28251194 0 10.58694736 1.8347558 14.90570646 5.50511114l104.5659169 89.6138355c11.0557543-6.35672104 23.47745745-10.02792014 36.54756436-10.02792013l339.92565518 0c40.10662051 0 72.73930764 31.51378976 72.73930765 70.23253875L878.78299304 679.40836944C878.78215012 718.12796137 846.15030508 749.6409082 806.04284247 749.6409082zM546.33127041 210.12060892c52.93220554 44.67327402 79.52099112 87.77907971 79.05134043 128.06613995-0.42664829 37.06190332-23.59128625 56.75770541-24.12754788 56.98199131-14.72610965 14.90486352-31.01968762 24.75234311-48.3874747 30.48173931-9.96046545 3.58182175-20.18821838 6.08859063-30.97499937 6.40141013-0.94014349 0-1.88028781 0.04553201-2.7976657 0.04553201-15.68901874 0-30.05762063-3.80526389-42.72553235-8.86349075-0.02276559 0-0.04468826 0-0.06745385 0-4.47643405-1.79091047-8.70665955-3.67119827-12.66706797-5.68470795-7.56499576-3.67035534-14.59288696-7.47561923-20.29951841-11.23450818L443.33535144 679.40836944c0 11.0127519 10.42927239 20.27759573 22.7835217 20.27759574l223.05186474 0 0-545.92002273L481.91834815 153.76594244 546.33127041 210.12060892zM828.82720709 174.04185151000001c0-11.01106604-10.42927239-20.27590906-22.78352169-20.27590906l-68.26287442 0L737.78081097 699.68596518l68.26287443 0c12.35424848 0 22.7835217-9.26484384 22.78352168-20.27759574L828.82720709 174.04185151000001z"  horiz-adv-x="1024" />

    
    <glyph glyph-name="mima1" unicode="&#59001;" d="M766.05848248 519.93383679C754.89986072 649.0606949200001 646.43761673 750.78257117 514.49875903 750.78257117c-131.93885769 0-240.3555705-101.72187625-251.469504-230.80404611l-4.73107351 0c-36.51130783 0-66.23755966-29.72625183-66.23755966-66.23755967l0-370.28597772c0-36.51130783 29.72625183-66.23755966 66.23755966-66.23755966l507.40363696 0c36.51046491 0 66.23755966 29.72625183 66.23755966 66.23755967L831.93937814 453.7409654C831.93853439 490.16205377 802.39103643 519.75508292 766.05848248 519.93383679zM514.49875903 702.57722369c105.24720466 0 191.21345123-80.208181 202.2835394-182.59954156L312.30543991 519.97768213C323.37468515 622.36904187 409.25155437 702.57722369 514.49875903 702.57722369zM786.23236701 83.45498850000001c0-11.1139335-9.37192675-20.5322352-20.53139228-20.5322352L258.29818152 62.92275246999998c-11.15777884 0-20.5322352 9.41830169-20.5322352 20.53223521L237.76594632 453.7409654c0 11.33737564 9.19485955 20.5322352 20.5322352 20.53223519l26.60227651 0c0.35750776 0 0.71417175-0.22344214 1.07167951-0.22344214 0.40219601 0 0.71417175 0.22344214 1.11552484 0.22344214L741.95538687 474.27320141c0.35750776 0 0.7150155-0.22344214 1.07083658-0.22344213 0.40219601 0 0.7150155 0.22344214 1.11636776 0.22344213l21.55838352 0c11.33653271 0 20.53139227-9.19401663 20.53139228-20.5322352L786.23236701 83.45498850000001zM513.69520993 347.51145776c-25.21777752 0-45.70532446-20.486704-45.70532446-45.70532446 0-19.77253143 12.76571997-36.24233367 30.39657825-42.62603741-0.22344214-1.02699124-0.62479523-1.96376221-0.62479524-3.03544172l0-45.70532446c0-8.79350647 7.09703174-15.93438437 15.93354063-15.93438437 8.74966114 0 15.89053903 7.14172083 15.89053903 15.93438437l0 45.70532446c0 1.0716795-0.40219601 2.00845047-0.6239523 3.03544172 17.62917242 6.38285998 30.44042359 22.85350516 30.44042359 42.62603741C559.40137732 327.02475458000004 538.86998505 347.51145776 513.69520993 347.51145776z"  horiz-adv-x="1024" />

    
    <glyph glyph-name="jiantouyou" unicode="&#58922;" d="M860.29983521 384.03872681c0-96.21716308-38.9682312-183.25854492-102.00476075-246.30331421-63.04888916-63.09997558-150.11581421-102.05996704-246.30743408-102.05996705-96.1875 0-183.25442505 39.03167724-246.27859497 102.05996705-63.0282898 63.04476929-102.00970459 150.08615113-102.00970459 246.30331419 0 96.14135742 38.98553467 183.22888182 102.00970459 246.27777102 63.02416992 62.97720337 150.09027099 102.00970459 246.277771 102.00970458 96.19161987 0 183.25854492-39.03167724 246.30743408-102.00970458 63.03652954-63.04888916 102.00476075-150.13806153 102.00476074-246.27777102v2e-8zM548.36035156 214.38070678999998c-6.51351929-6.46325684-6.51351929-17.04803467 0-23.58792114 6.56048585-6.51351929 17.12384033-6.51351929 23.63323975 0l181.41036987 181.41448974c3.01657104 2.99102783 4.91088867 7.18011474 4.91088867 11.8289795 0 4.57223511-1.89019775 8.78768921-4.91088867 11.7572937v0l-0.28674316 0.31228638-181.12362671 181.09808349c-6.51351929 6.51351929-17.07357788 6.51351929-23.63323975 0-6.51351929-6.5390625-6.51351929-17.07357788 0-23.58792114l152.91732789-152.94204712h-418.90539552c-9.21697998 0-16.68878175-7.47180176-16.68960571-16.64346314 0-9.26889038 7.47180176-16.73574829 16.68878175-16.73574829h418.9053955l-152.91732789-152.91732788zM511.98764038 698.92144775c-86.94827271 0-165.67904663-35.27270508-222.67007446-92.23901367-56.96960449-56.99102783-92.22583008-135.72592163-92.22583008-222.64782715 0-86.99523926 35.25622559-165.72930908 92.22583008-222.72033691 56.99102783-56.96136473 135.72180175-92.20935058 222.67007446-92.20935059 86.96887207 0 165.68316651 35.24798585 222.67007446 92.21759034 56.99102783 56.99102783 92.21347045 135.72180175 92.21264649 222.72033691 0 86.9227295-35.22244263 165.65350342-92.21347046 222.64865113-56.98690796 56.95724487-135.69543458 92.22994995-222.67007446 92.22994994z"  horiz-adv-x="1024" />

    
    <glyph glyph-name="cheliangdingdan" unicode="&#58961;" d="M472.08371328 561.1870675800001M751.62408506 650.39848213L657.27445362 650.39848213l0-83.93379258L370.58842724 566.46468867l0 83.93379258L275.61372031 650.39848213c-19.64807842 0-35.58887051-15.9291-35.58887051-35.58887051l0-555.5065667c0-19.6597705 15.94169121-35.58887051 35.58887051-35.58887051l476.00946563 0c19.65797227 0 35.58797138 15.9291 35.58797138 35.58887051L787.21115644 614.80961075C787.21205644 634.46938213 771.28205644 650.39848213 751.62408506 650.39848213zM662.98648115 140.95418526000003L370.85464619 140.95418526000003c-13.1023169 0-23.72591425 10.62269824-23.72591426 23.72501425s10.62359737 23.72681338 23.72591426 23.72681338l292.13183496 0c13.1023169 0 23.72591425-10.62359737 23.72591426-23.72681338S676.08879805 140.95418526000003 662.98648115 140.95418526000003zM662.98648115 279.5565126L370.85464619 279.5565126c-13.1023169 0-23.72591425 10.63259122-23.72591426 23.72501425 0 13.1149081 10.62359737 23.72681338 23.72591426 23.72681338l292.13183496 0c13.1023169 0 23.72591425-10.61190527 23.72591426-23.72681338C686.71239541 290.18910381 676.08879805 279.5565126 662.98648115 279.5565126zM662.98648115 418.17682852L370.85464619 418.17682852c-13.1023169 0-23.72591425 10.62359737-23.72591426 23.72681338 0 13.1014169 10.62359737 23.72501426 23.72591426 23.72501425l292.13183496 0c13.1023169 0 23.72591425-10.62359737 23.72591426-23.72501425C686.71239541 428.79952588 676.08879805 418.17682852 662.98648115 418.17682852zM578.64616367 693.88939482l0 11.97807891c0 18.09573135-14.66635606 32.75039531-32.75039531 32.75039532l-66.68618643 0c-18.09663047 0-32.76298652-14.65466396-32.76298652-32.75039532l0-11.97807891-39.64512041 0 0-87.48998174 214.28061768 0 0 87.48998174L578.64616367 693.88939482zM512.18572432 653.72262773c-16.45614317 0-29.79140185 13.34605166-29.79140185 29.78510537 0 16.45074668 13.33435958 29.78600537 29.79140185 29.78600539 16.44984668 0 29.78420625-13.33525869 29.78420625-29.78600539C541.96993057 667.0686794000001 528.63557099 653.72262773 512.18572432 653.72262773z"  horiz-adv-x="1024" />

    
    <glyph glyph-name="fangdajing" unicode="&#58919;" d="M864.58265417 59.91308139L654.55878134 269.9369534c22.61512765 24.44828494 40.63808579 52.31497934 53.62112494 83.00561269 14.97893801 35.41012921 22.57380945 73.00756741 22.57380944 111.74756755 0 38.74337265-7.59487143 76.34334128-22.57296651 111.75600008-14.46120181 34.18999173-35.15800699 64.88905764-61.51533893 91.24470374-26.35733276 26.35564609-57.05808454 47.05160752-91.24976294 61.51280933-35.41434548 14.9780951-73.01852957 22.57212359-111.76527557 22.5721236-38.74337265 0-76.34334128-7.59487143-111.75515634-22.57296653-34.18914798-14.46035888-64.88821389-35.15632031-91.24385999-61.51280932s-47.05160752-57.05555493-61.51280933-91.24470374c-14.9780951-35.41265881-22.57296652-73.01178369-22.57296652-111.75515635 0-38.74000013 7.59487143-76.3365954 22.57296652-111.74672461 14.46120181-34.18746213 35.15632031-64.88484138 61.51280933-91.2396437s57.05471201-47.04992083 91.24385999-61.50943679c35.41265881-14.9780951 73.01262744-22.57296652 111.75515634-22.57296653 38.74758893 0 76.35008716 7.5940285 111.76527557 22.5721236 19.44631164 8.2239126 37.75765017 18.47070757 54.78898288 30.62233329l212.64122323-212.64122324c5.76339999-5.76255707 13.31611111-8.6438356 20.86882141-8.64383561s15.10542142 2.88127853 20.86882141 8.64383561C876.10776831 29.70139562999998 876.10776831 48.38712351000004 864.58265417 59.91308139zM443.64952966 236.64751977000003c-125.75258816 0-228.05947898 102.29930118-228.05947897 228.04345762 0 125.75258816 102.30689081 228.0603219 228.05947897 228.0603219 125.7627074 0 228.07802993-102.30773374 228.07802994-228.0603219C671.72755878 338.94682094999996 569.41223623 236.64751977000003 443.64952966 236.64751977000003z"  horiz-adv-x="1024" />

    
    <glyph glyph-name="index100" unicode="&#58970;" d="M805.02934134 503.5837663c-1.27825818 6.72266052-3.25551132 13.4562832-6.14424024 20.16629571l-53.02664208 122.88986801c-16.77503293 38.82077353-56.2973302 63.01746194-102.98327097 63.01746195l-262.14835748 0c-46.68509783 0-86.20655219-24.19753134-102.95628909-63.01830486l-53.02748502-122.88986803c-2.91233826-6.74711279-4.90308234-13.54313013-6.1686925-20.30120424-44.21542841-18.61906338-75.24523361-62.34207549-75.24523361-113.30377378l0-98.31290625c0-45.45574338 24.7498135-85.05055454 61.44493442-106.31129617l0-90.31198755c0-20.36107012 16.50437292-36.86797266 36.86797265-36.86797265l61.44409066 0c20.36275681 0 36.86712891 16.50605878 36.86712891 36.86797265l0 73.73341488 356.38112357 0 0-73.73341488c0-20.36107012 16.50437292-36.86797266 36.86797265-36.86797265l61.44493441 0c20.36107012 0 36.86797266 16.50605878 36.86797266 36.86797265L831.51525945 193.69296533c29.79960864 22.42685688 49.15645312 57.98031399 49.15645314 98.14005451L880.67171258 390.14508398C880.6700259 441.26782892 849.44291668 485.07768796 805.02934134 503.5837663L805.02934134 503.5837663zM253.92967496 291.83217691000004c-27.14612613 0-49.15645312 22.010327-49.15645313 49.15645312s22.010327 49.15645312 49.15645313 49.15645313c27.14612613 0 49.1556102-22.010327 49.1556102-49.15645313S281.07580109 291.83217691000004 253.92967496 291.83217691000004L253.92967496 291.83217691000004zM634.88860321 291.83217691000004L389.10971011 291.83217691000004c-27.14696905 0-49.15729605 22.010327-49.15729605 49.15645312s22.010327 49.15645312 49.15729605 49.15645313l245.77889309 0c27.1478128 0 49.1581398-22.010327 49.15813981-49.15645313S662.03641602 291.83217691000004 634.88860321 291.83217691000004L634.88860321 291.83217691000004zM266.21899917 513.0341082499999c-0.24620773 0-0.47892535-0.03625654-0.72429015-0.03625654 0.92075042 6.14424023 2.59277371 12.30112849 5.50342529 18.45885965l42.75420007 90.54470435c14.72273711 31.19000977 50.7551196 50.78968945 93.335625 50.78968946l209.44212287 0c42.59399633 0 78.61288788-19.60052344 93.34742925-50.79053239l42.75335715-90.54386141c2.89884732-6.14508398 4.58351697-12.30112849 5.49246397-18.43440738-0.11214294 0-0.22259921 0.01180426-0.34401682 0.01180426L266.21899917 513.0341082499999 266.21899917 513.0341082499999zM770.06695252 291.83217691000004c-27.14612613 0-49.15476645 22.010327-49.15476646 49.15645312s22.00864032 49.15645312 49.15476646 49.15645313 49.15645312-22.010327 49.15645312-49.15645313S797.21392157 291.83217691000004 770.06695252 291.83217691000004L770.06695252 291.83217691000004z"  horiz-adv-x="1024" />

    
    <glyph glyph-name="dingdangdaigaixingming" unicode="&#59067;" d="M765.125 32.4375L258.875 32.4375c-54.28125 0-98.4375 44.15625-98.4375 98.4375L160.4375 637.125c0 54.28125 44.15625 98.4375 98.4375 98.4375l379.6875 0C646.325 735.5625 652.625 729.2625 652.625 721.5s-6.3-14.0625-14.0625-14.0625L258.875 707.4375C220.11875 707.4375 188.5625 675.909375 188.5625 637.125l0-506.25c0-38.784375 31.55625-70.3125 70.3125-70.3125l506.25 0c38.784375 0 70.3125 31.528125 70.3125 70.3125L835.4375 510.5625c0 7.7625 6.3 14.0625 14.0625 14.0625s14.0625-6.3 14.0625-14.0625L863.5625 130.875C863.5625 76.59375 819.40625 32.4375 765.125 32.4375zM531.321875 389.259375c-3.6 0-7.2 1.378125-9.95625 4.10625-5.484375 5.484375-5.484375 14.4 0 19.884375L839.54375 731.45625c5.484375 5.484375 14.4 5.484375 19.884375 0s5.484375-14.4 0-19.884375L541.25 393.365625C538.49375 390.609375 534.89375 389.259375 531.321875 389.259375z"  horiz-adv-x="1024" />

    
    <glyph glyph-name="zhuanyefuwu" unicode="&#59181;" d="M336.82801688 59.35357872999998c-9.28676569 4.96126153-12.72103171 16.5372561-7.75977018 25.82402261s16.5372561 12.72103171 25.82402261 7.75977018c23.78859026-12.84835144 49.23149579-22.89819342 75.94591526-29.64024784 25.95134235-6.48825705 53.04772102-9.92252225 81.16181625-9.92252224 91.33813504 0 174.02694763 37.0189009 233.81672223 96.80867632s96.80867632 142.47774344 96.80867634 233.81672224-37.0189009 174.02694763-96.80867634 233.81672223S603.33813504 714.62539856 512 714.62539856s-174.02694763-37.0189009-233.81672223-96.80867632S181.37460144 475.33897879 181.37460144 384c0-40.19936956 7.12401361-78.61710415 20.22700452-114.10985247 13.61142773-37.0189009 33.45647305-70.85733398 58.39094256-100.11646472 6.86937414-8.01440964 5.85165757-20.09968478-2.16275207-26.84173921-8.01440964-6.86937414-19.97236505-5.85165757-26.71441864 2.16275208-27.98677469 32.82071649-50.37653211 70.60269369-65.3867927 111.69246011-14.62914431 39.69008981-22.64355396 82.56064911-22.64355395 127.21284339 0 101.89725759 41.34440588 194.12663242 108.00355463 260.91310089 66.78646848 66.65914875 159.01584329 108.00355463 260.91310089 108.00355462s194.12663242-41.34440588 260.91310089-108.00355462c66.65914875-66.78646848 108.00355463-159.01584329 108.00355462-260.9131009s-41.34440588-194.12663242-108.00355462-260.91310088c-66.78646848-66.65914875-159.01584329-108.00355463-260.91310089-108.00355463-31.16724335 0-61.44324773 3.94354495-90.44773902 11.1948783C391.65653076 33.78419641000005 363.28863897 44.97907470999996 336.82801688 59.35357872999998zM642.32670112 371.97880700999997l-0.38196003-0.38196003L522.87447083 249.47258487c-3.05314893-3.18046866-7.12401361-4.83394099-11.5759954-4.83394098-4.45282471 0-8.52284647 1.65347232-11.57599538 4.83394097L380.65136685 371.59684698l-0.12731973 0.12731974c-16.15613983 16.28345957-25.06094632 38.29125696-25.18826605 61.82520777-0.12731973 24.04322974 8.90480649 46.55946396 25.31558578 63.47868007 16.41078012 16.91921613 38.16393723 26.33330237 61.31677094 26.33330237 21.75315793 0 42.74323874-8.39636965 59.02669829-23.40747317l10.55827882-9.92252224 10.8129191 9.66788277c16.28345957 14.88378379 37.2735412 23.02551398 59.0266983 23.02551398 23.28015344 0 45.1606311-9.15944595 61.57056748-25.82402261 16.79189639-16.91921613 25.95134235-39.43629328 25.69670287-63.35220328C668.40536319 410.14190048 659.11944043 388.26142364 642.32670112 371.97880700999997zM692.19395346 479.72772134c-6.10629702 15.39306354-15.13842324 29.13181101-26.71441864 40.96244587-22.51623423 22.64355396-52.28464471 35.23810886-84.08764462 35.23810885-24.93362659 0-49.23149579-8.01440964-69.58497794-22.51623422-20.35432508 15.01110352-44.65135134 23.15283371-69.83961739 23.1528337-31.80299991 0-61.57056748-12.84835144-84.08764463-36.00118514-11.32219885-11.83063486-20.22700451-25.44206259-26.20598264-40.83512613-5.72433783-14.75646405-8.52284647-30.40416705-8.52284646-46.30566742 0.12731973-15.77417981 3.05314893-31.16724335 8.90480648-45.54174738 5.85165757-15.01110352 14.62914431-28.36873471 25.82402262-39.81741036l119.19843374-122.12426213c9.03212622-9.41408624 21.2447211-14.50182376 34.22039227-14.50182376 13.1029909 0 25.18826604 5.08858127 34.34771201 14.50182377l118.94379346 121.99694238c11.57599539 11.32219885 20.60812161 24.6789863 26.8417392 39.56277008 6.10629702 14.50182376 9.28676569 29.8948873 9.41408623 45.66906794C700.97228315 449.19623455 698.04645395 464.84393755 692.19395346 479.72772134zM441.58533484 495.88386118c-14.75646405 0-28.62253125-6.10629702-39.30897354-16.91921614-10.55827881-10.94023882-16.41078012-25.31558579-16.41078013-40.58048666 0-6.36093732 4.70662124-11.32219885 11.06755858-11.32219885 6.23361758 0 10.94023882 4.96126153 10.94023882 11.32219885 0 9.03212622 3.43510812 17.42849587 9.66788278 23.91591001 6.23361758 6.48741412 14.37534696 10.0498428 23.02551398 10.0498428 5.85165757 0 10.30448227 4.19818523 10.94023883 9.92252226 1.01771658 2.92582919 0.7630763 6.10629702-0.76307629 8.65016619C448.96398874 493.97490564 445.52972271 495.88386118 441.58533484 495.88386118z"  horiz-adv-x="1024" />

    
    <glyph glyph-name="weibiaoti105" unicode="&#58889;" d="M819.08680749 649.68884254c-79.21260596 85.83103717-207.65391291 85.83103717-286.84189617 0l-20.22651673-21.9259885-20.23890048 21.9259885c-79.20029462 85.83103717-207.62929022 85.83103717-286.82958484 0-79.21260596-85.82524359-79.21260596-224.96944964 0-310.79469324l20.22651672-21.90744905 286.84189618-264.63151575 286.82958483 264.63151575 20.23890049 21.90744904C898.28637791 424.7186687 898.28637791 563.86359894 819.08680749 649.68884254L819.08680749 649.68884254Z"  horiz-adv-x="1024" />

    
    <glyph glyph-name="addfollow" unicode="&#58894;" d="M863.27163022 130.30567756000005L765.69617637 130.30567756000005 765.69617637 32.730223720000026C765.69617637 21.957894450000026 756.95341632 13.21513367 746.18108634 13.21513367 735.40875708 13.21513367 726.66599629 21.957894450000026 726.66599629 32.730223720000026L726.66599629 130.30567756000005 629.09054389 130.30567756000005C618.31821318 130.30567756000005 609.5754524 139.04843761999996 609.5754524 149.82076760999996 609.5754524 160.59309685999995 618.31821318 169.33585764999998 629.09054389 169.33585764999998L726.66599629 169.33585764999998 726.66599629 266.91131004C726.66599629 277.68364075 735.40875708 286.42640153 746.18108634 286.42640153 756.95341632 286.42640153 765.69617637 277.68364075 765.69617637 266.91131004L765.69617637 169.33585764999998 863.27163022 169.33585764999998C874.04395948 169.33585764999998 882.78672027 160.59309685999995 882.78672027 149.82076760999996 882.78672027 139.04843761999996 874.04395948 130.30567756000005 863.27163022 130.30567756000005ZM512 286.42640153L433.93963765 286.42640153C297.93897206 286.42640153 187.26889304 179.34709918 180.86794381 44.92715598999996L175.59886943 44.92715598999996C178.37001145 41.57055982999998 180.24346127 37.433361030000015 180.24346127 32.730223720000026 180.24346127 21.957894450000026 171.50070047 13.21513367 160.72836978 13.21513367 149.95604052 13.21513367 141.21327973 21.957894450000026 141.21327973 32.730223720000026 141.21327973 37.433361030000015 143.08672812 41.57055982999998 145.85787154 44.92715598999996L141.837763 44.92715598999996C148.27774207 200.89175916 276.39431209 325.45658235999997 433.93963765 325.45658235999997L512 325.45658235999997C563.79305015 325.45658235999997 612.28805036 311.77650375999997 654.4406461 288.16324475 641.36553513 281.31344726 629.40278409 272.66826253 618.82560549 262.53993075000005 586.35249545 277.70315569 550.24957744 286.42640153 512 286.42640153ZM473.36012123 364.48676389L472.57951714 364.48676389C375.78466738 364.48676389 297.33400371 442.93742757 297.33400371 539.73227661L297.33400371 579.5430615299999C297.33400371 676.3379105399999 375.78466738 754.78857422 472.57951714 754.78857422L473.36012123 754.78857422C570.15496954 754.78857422 648.60563394 676.3379105399999 648.60563394 579.5430615299999L648.60563394 539.73227661C648.60563394 442.93742757 570.15496954 364.48676389 473.36012123 364.48676389ZM609.5754524 579.15275947C609.5754524 654.5980999 548.41515891 715.75839268 472.96981846 715.75839268 397.52447874 715.75839268 336.36418525 654.5980999 336.36418525 579.15275947L336.36418525 540.12257793C336.36418525 464.6772382 397.52447874 403.516944 472.96981846 403.516944 548.41515891 403.516944 609.5754524 464.6772382 609.5754524 540.12257793L609.5754524 579.15275947Z"  horiz-adv-x="1024" />

    
    <glyph glyph-name="weibiaoti-3" unicode="&#58881;" d="M512 586.40693902c-76.77504573 0-139.59099237-62.81594664-139.59099237-139.59099238s62.81594664-139.59099237 139.59099237-139.59099237 139.59099237 62.81594664 139.59099237 139.59099237-62.81594664 139.59099237-139.59099237 139.59099238z m0-232.65165396c-51.18336433 0-93.06066158 41.87729802-93.06066158 93.06066158s41.87729802 93.06066158 93.06066158 93.06066159 93.06066158-41.87729802 93.06066158-93.06066159-41.87729802-93.06066158-93.06066158-93.06066158zM512 749.26309756c-167.50919131 0-302.44715092-134.93795961-302.44715092-302.44715092 0-269.8759192 302.44715092-442.03814329 302.44715092-442.03814328s302.44715092 172.16222407 302.44715092 442.03814328c0 167.50919131-134.93795961 302.44715092-302.44715092 302.44715092z m0-688.6488971C444.53102058 104.81801447999999 256.08317987 249.06204039 256.08317987 446.81594664c0 141.91750914 113.99931098 255.91682013 255.91682013 255.91682013s255.91682013-113.99931098 255.91682013-255.91682013c0-197.75390625-188.44783994-341.99793217-255.91682013-386.20174619z"  horiz-adv-x="1024" />

    
    <glyph glyph-name="shijian" unicode="&#58886;" d="M512 751.4026692699999C314.24609375 751.4026692699999 156.04296875 590.72762044 156.04296875 395.44563802s160.67504883-355.95703125 355.95703125-355.95703125 355.95703125 160.67504883 355.95703125 355.95703125S709.75390625 751.4026692699999 512 751.4026692699999z m0-677.30712891C336.4934082 74.09554035999997 193.12182617 217.46712239 193.12182617 392.97371419S336.4934082 711.8518880199999 512 711.8518880199999 830.87817383 568.48030599 830.87817383 392.97371419 689.97851563 74.09554035999997 512 74.09554035999997zM741.88891602 380.61409504999995H526.83154297V598.14339192c0 9.88769531-7.41577148 17.3034668-17.3034668 17.3034668-9.88769531 0-17.3034668-7.41577148-17.3034668-17.3034668v-237.3046875c0-9.88769531 7.41577148-17.3034668 17.3034668-17.30346679h232.36083985c9.88769531 0 17.3034668 7.41577148 17.30346679 17.30346679 0 12.35961914-7.41577148 19.77539063-17.30346679 19.77539063z"  horiz-adv-x="1024" />

    
    <glyph glyph-name="daifukuan" unicode="&#58900;" d="M812.04760734 102.43139673999997a28.89404262 28.89404262 0 0 0-28.86108416-28.86108416H186.99145508a28.89404262 28.89404262 0 0 0-28.86108416 28.86108416V665.56860326a28.89404262 28.89404262 0 0 0 28.86108416 28.86108416h596.18408195a28.89404262 28.89404262 0 0 0 28.86108415-28.86108416v-127.34252869h41.63818342V665.56860326a70.57617222 70.57617222 0 0 1-70.49926757 70.49926758H186.99145508A70.57617222 70.57617222 0 0 1 116.4921875 665.56860326v-563.13720652a70.57617222 70.57617222 0 0 1 70.49926758-70.49926758h596.18408195a70.57617222 70.57617222 0 0 1 70.49926757 70.49926758V233.91577130999997h-41.62719726v-131.48437457zM787.32836906 504.17944344h-248.40087857c-66.2695309 0-120.17944344-53.90991176-120.17944345-120.17944344s53.90991176-120.17944344 120.17944345-120.17944344h248.40087857C853.59790074 263.82055656 907.5078125 317.73046910000005 907.5078125 384s-53.90991176 120.17944344-120.17944344 120.17944344z m0-198.73168962h-248.40087857c-43.30810547 0-78.55224618 35.24414071-78.55224618 78.55224618s35.24414071 78.55224618 78.55224618 78.55224618h248.40087857c43.30810547 0 78.55224618-35.24414071 78.55224617-78.55224618s-35.24414071-78.55224618-78.55224617-78.55224618zM583.52099635 384m-37.35351597 0a37.35351597 37.35351597 0 1 1 74.70703116 0 37.35351597 37.35351597 0 1 1-74.70703116 0Z"  horiz-adv-x="1024" />

    
    </font>
</defs>
</svg>
